<svg id="svg" version="1.1" width="1000" height="430" xmlns="http://www.w3.org/2000/svg" xmlns:xlink="http://www.w3.org/1999/xlink" style="display: block;"><g id="svgg"><path id="path0" d="M350.834 15.122 C 349.163 15.607,348.175 16.252,346.508 17.946 L 344.347 20.141 343.212 19.471 C 339.602 17.338,333.463 19.670,332.624 23.492 C 332.373 24.633,332.239 24.704,329.918 24.914 C 325.571 25.308,322.677 28.223,322.645 32.239 C 322.615 35.920,323.253 36.400,328.176 36.400 L 332.333 36.400 333.559 37.948 C 334.958 39.715,336.737 40.603,338.161 40.245 C 339.379 39.940,341.600 38.107,341.600 37.407 C 341.600 36.469,342.698 36.400,357.604 36.400 C 374.304 36.400,373.370 36.590,373.802 33.100 C 374.319 28.919,370.967 25.401,365.592 24.484 C 363.921 24.198,363.873 24.146,363.045 21.659 C 361.835 18.028,359.648 15.910,356.220 15.049 C 353.265 14.307,353.660 14.301,350.834 15.122 M280.807 42.672 C 277.589 44.073,275.379 46.631,275.129 49.245 L 275.000 50.600 272.608 50.667 C 269.797 50.746,267.600 52.536,267.600 54.747 C 267.600 56.254,268.145 56.388,274.295 56.395 L 279.189 56.400 279.739 57.700 C 281.490 61.836,288.056 61.912,289.767 57.816 L 290.356 56.408 308.678 56.304 L 327.000 56.200 327.124 54.914 C 327.374 52.327,323.611 49.600,319.793 49.600 C 319.068 49.600,318.394 49.361,318.280 49.063 C 317.514 47.068,313.606 46.899,311.200 48.757 C 309.988 49.693,309.585 49.797,308.200 49.535 C 307.320 49.368,305.397 49.337,303.926 49.465 L 301.252 49.698 300.677 48.349 C 299.419 45.394,296.804 44.246,293.742 45.304 C 292.112 45.868,292.060 45.857,290.598 44.639 C 287.624 42.160,283.764 41.384,280.807 42.672 M43.841 56.272 C 42.225 56.540,39.916 58.078,38.377 59.910 L 37.076 61.460 34.838 60.540 C 30.700 58.837,26.078 60.843,25.364 64.650 C 25.099 66.063,24.432 66.386,21.756 66.395 C 17.510 66.409,13.945 71.405,15.327 75.404 L 15.879 77.000 20.495 77.112 L 25.110 77.225 26.119 78.749 C 28.162 81.836,31.517 81.845,33.726 78.768 L 34.852 77.200 49.997 77.200 C 67.461 77.200,66.400 77.439,66.400 73.509 C 66.400 69.656,63.813 66.999,59.110 66.023 C 56.628 65.508,56.408 65.317,55.628 63.000 C 53.964 58.057,49.263 55.374,43.841 56.272 M397.000 66.990 C 394.238 67.731,392.544 69.712,392.179 72.626 C 391.997 74.083,391.700 74.849,391.256 75.008 C 390.443 75.296,389.008 77.096,388.629 78.300 L 388.346 79.200 394.173 79.200 L 400.000 79.200 400.000 72.800 C 400.000 67.932,399.880 66.406,399.500 66.427 C 399.225 66.442,398.100 66.695,397.000 66.990 M397.600 127.920 C 397.600 128.927,398.327 129.544,399.234 129.307 C 400.600 128.950,400.240 127.200,398.800 127.200 C 397.911 127.200,397.600 127.387,397.600 127.920 M114.380 137.300 C 113.944 138.235,113.153 139.593,112.621 140.319 C 111.802 141.436,111.717 141.816,112.063 142.810 C 112.288 143.455,112.396 144.211,112.303 144.490 C 112.115 145.055,114.348 147.462,114.902 147.291 C 115.096 147.231,116.547 147.160,118.127 147.133 C 120.581 147.091,121.127 146.948,121.869 146.155 C 122.854 145.102,123.256 141.896,122.499 141.139 C 122.198 140.838,122.165 140.439,122.405 139.991 C 122.807 139.239,120.555 136.800,119.460 136.800 C 119.151 136.800,118.676 136.532,118.404 136.204 C 117.819 135.500,117.270 135.755,116.813 136.941 C 116.493 137.773,116.469 137.766,116.051 136.700 C 115.479 135.240,115.311 135.300,114.380 137.300 M118.594 139.433 C 121.422 141.286,120.135 146.018,116.811 145.987 C 112.370 145.945,112.276 139.014,116.714 138.837 C 117.217 138.816,118.063 139.085,118.594 139.433 M127.888 145.700 C 126.034 146.982,126.008 147.031,126.006 149.200 C 126.003 151.872,128.746 154.724,130.783 154.167 C 131.342 154.014,132.089 153.900,132.443 153.915 C 136.463 154.081,136.345 145.251,132.324 145.007 C 131.816 144.977,131.033 144.827,130.584 144.675 C 130.009 144.481,129.214 144.783,127.888 145.700 M131.400 146.000 C 131.536 146.220,131.932 146.400,132.280 146.400 C 133.903 146.400,134.629 150.057,133.311 151.595 C 132.459 152.591,128.000 152.804,128.000 151.849 C 128.000 151.546,127.730 151.074,127.400 150.800 C 126.057 149.686,127.037 147.141,129.200 146.124 C 130.466 145.529,131.087 145.494,131.400 146.000 M164.466 150.350 C 164.041 150.620,164.068 150.740,164.599 150.944 C 165.530 151.301,165.600 151.277,165.600 150.600 C 165.600 149.927,165.255 149.851,164.466 150.350 M158.680 151.453 C 157.958 152.175,158.400 153.656,159.300 153.528 C 159.958 153.434,160.200 153.132,160.200 152.405 C 160.200 151.440,159.274 150.859,158.680 151.453 M288.463 151.882 C 287.864 153.002,288.828 154.160,289.780 153.464 C 290.626 152.846,290.462 151.461,289.522 151.280 C 289.155 151.210,288.678 151.480,288.463 151.882 M167.272 153.300 C 167.342 153.795,167.670 154.200,168.000 154.200 C 168.330 154.200,168.658 153.795,168.728 153.300 C 168.826 152.607,168.659 152.400,168.000 152.400 C 167.341 152.400,167.174 152.607,167.272 153.300 M296.929 153.040 C 296.677 153.698,297.511 154.502,298.081 154.150 C 298.256 154.042,298.400 153.603,298.400 153.176 C 298.400 152.240,297.276 152.137,296.929 153.040 M306.254 155.913 C 306.143 156.092,306.196 156.470,306.371 156.753 C 306.619 157.154,306.741 157.131,306.927 156.646 C 307.179 155.990,306.598 155.357,306.254 155.913 " stroke="none" fill="#ffffff" fill-rule="evenodd"></path><path id="path1" d="M335.641 137.647 C 335.116 138.072,334.781 138.514,334.896 138.629 C 335.288 139.021,337.200 138.316,337.200 137.780 C 337.200 136.884,336.643 136.836,335.641 137.647 M333.600 139.400 C 333.192 139.891,333.220 140.000,333.751 140.000 C 334.108 140.000,334.400 139.730,334.400 139.400 C 334.400 139.070,334.332 138.800,334.249 138.800 C 334.166 138.800,333.874 139.070,333.600 139.400 M340.901 141.400 C 340.905 142.280,340.987 142.593,341.083 142.095 C 341.179 141.598,341.175 140.878,341.075 140.495 C 340.975 140.113,340.896 140.520,340.901 141.400 M114.880 140.880 C 113.552 142.208,114.614 144.404,116.580 144.394 C 118.620 144.384,119.488 143.210,118.799 141.397 C 118.376 140.285,115.813 139.947,114.880 140.880 M333.651 143.569 C 332.688 144.163,336.097 146.441,337.523 146.155 C 338.939 145.872,341.386 143.600,340.275 143.600 C 339.904 143.600,339.600 143.870,339.600 144.200 C 339.600 145.181,335.408 145.032,334.704 144.026 C 334.366 143.545,333.969 143.372,333.651 143.569 M350.400 144.775 C 349.565 145.022,349.714 145.098,351.300 145.238 C 353.178 145.404,353.795 145.114,352.567 144.643 C 351.847 144.366,351.767 144.371,350.400 144.775 M390.201 147.700 C 389.755 152.553,390.008 154.200,391.200 154.200 L 392.200 154.200 392.313 149.500 L 392.425 144.800 391.447 144.800 C 390.523 144.800,390.453 144.963,390.201 147.700 M2.387 146.500 C 2.373 148.000,1.603 149.200,0.656 149.200 C 0.295 149.200,0.000 149.470,0.000 149.800 C 0.000 150.706,0.449 150.534,2.137 148.984 C 3.126 148.076,3.590 147.351,3.437 146.953 C 3.307 146.613,3.200 146.079,3.200 145.767 C 3.200 145.455,3.020 145.200,2.800 145.200 C 2.580 145.200,2.394 145.785,2.387 146.500 M353.883 146.796 C 353.997 147.233,354.243 147.497,354.428 147.383 C 354.822 147.139,354.465 146.000,353.995 146.000 C 353.819 146.000,353.769 146.358,353.883 146.796 M129.261 147.547 C 127.744 148.863,128.687 152.000,130.600 152.000 C 130.930 152.000,131.560 151.640,132.000 151.200 C 134.143 149.057,131.534 145.576,129.261 147.547 M160.546 147.802 C 157.926 149.108,154.800 152.899,154.800 154.771 C 154.800 155.047,157.701 155.186,163.400 155.183 C 168.130 155.180,172.000 155.082,172.000 154.964 C 172.000 153.377,168.029 148.000,166.856 148.000 C 166.656 148.000,165.976 147.731,165.346 147.402 C 163.754 146.572,162.866 146.646,160.546 147.802 M290.798 147.532 C 287.818 148.952,285.200 152.005,285.200 154.060 L 285.200 155.200 291.500 155.175 C 295.676 155.158,297.497 155.027,296.900 154.788 C 296.299 154.546,296.000 154.089,296.000 153.413 C 296.000 152.596,295.804 152.400,294.990 152.400 C 293.661 152.400,292.849 150.579,293.769 149.660 C 294.737 148.692,296.553 149.686,296.294 151.043 C 296.120 151.951,296.203 152.036,297.058 151.821 C 299.248 151.271,300.725 153.954,298.700 154.803 C 297.953 155.117,298.072 155.166,299.400 155.091 C 303.108 154.881,300.584 149.837,295.649 147.595 C 293.571 146.651,292.673 146.640,290.798 147.532 M347.270 148.838 C 347.194 151.262,348.057 152.660,349.328 152.172 C 349.860 151.968,349.770 151.755,348.808 150.946 C 347.939 150.214,347.606 149.541,347.492 148.283 C 347.358 146.800,347.331 146.866,347.270 148.838 M11.633 149.345 C 12.036 149.695,15.200 149.888,15.200 149.562 C 15.200 149.363,14.360 149.200,13.333 149.200 C 12.307 149.200,11.542 149.265,11.633 149.345 M165.968 149.762 C 166.730 150.679,166.079 152.400,164.971 152.400 C 163.304 152.400,162.619 150.208,164.100 149.612 C 165.338 149.115,165.438 149.123,165.968 149.762 M352.888 151.448 C 351.789 152.580,351.698 152.800,352.333 152.800 C 353.213 152.800,355.291 150.871,354.970 150.352 C 354.636 149.812,354.308 149.984,352.888 151.448 M161.205 151.813 C 161.846 153.499,160.565 154.977,158.852 154.529 C 157.879 154.275,157.430 153.130,157.772 151.771 C 158.134 150.327,160.652 150.358,161.205 151.813 M290.800 152.386 C 290.800 154.420,289.676 155.204,288.173 154.219 C 286.298 152.990,287.135 150.800,289.480 150.800 C 290.751 150.800,290.800 150.858,290.800 152.386 M9.051 152.291 C 8.717 153.677,9.019 155.200,9.627 155.200 C 9.832 155.200,10.000 155.516,10.000 155.902 C 10.000 156.734,12.769 157.777,13.380 157.175 C 13.618 156.940,13.381 156.800,12.750 156.800 C 11.243 156.800,9.875 155.100,9.598 152.886 C 9.364 151.016,9.360 151.011,9.051 152.291 M169.132 151.950 C 170.326 152.707,169.518 154.600,168.000 154.600 C 166.753 154.600,166.586 154.473,166.468 153.443 C 166.334 152.271,166.885 151.612,168.000 151.612 C 168.330 151.612,168.839 151.764,169.132 151.950 M308.800 153.963 C 308.800 154.162,309.158 154.232,309.595 154.117 C 310.099 153.985,310.481 154.145,310.638 154.555 C 310.774 154.910,311.254 155.200,311.705 155.200 C 312.499 155.200,312.502 155.175,311.800 154.400 C 311.079 153.603,308.800 153.271,308.800 153.963 M195.483 156.903 C 195.107 158.095,194.797 159.594,194.794 160.235 C 194.782 162.447,194.170 162.758,192.793 161.253 C 191.292 159.614,190.854 159.875,191.718 161.896 C 192.072 162.723,192.682 164.345,193.075 165.500 C 193.825 167.711,194.195 168.054,194.580 166.900 C 194.708 166.515,195.141 165.775,195.541 165.256 L 196.269 164.313 197.156 165.815 C 198.243 167.657,198.621 167.336,199.089 164.176 C 199.430 161.876,199.406 161.754,198.624 161.776 C 197.930 161.796,197.762 161.486,197.558 159.800 C 197.425 158.700,197.058 157.110,196.741 156.268 L 196.166 154.736 195.483 156.903 M307.867 155.067 C 307.720 155.213,307.600 155.849,307.600 156.479 C 307.600 157.870,306.645 158.346,305.654 157.449 C 304.691 156.577,304.531 156.623,304.221 157.858 C 303.785 159.594,304.093 159.673,311.100 159.622 L 313.600 159.604 313.573 157.902 C 313.549 156.384,313.499 156.297,313.112 157.100 C 312.309 158.764,308.864 157.322,308.813 155.300 C 308.799 154.760,308.297 154.636,307.867 155.067 M14.400 156.600 C 13.992 157.091,14.020 157.200,14.551 157.200 C 14.908 157.200,15.200 156.930,15.200 156.600 C 15.200 156.270,15.132 156.000,15.049 156.000 C 14.966 156.000,14.674 156.270,14.400 156.600 " stroke="none" fill="#be1e2d" fill-rule="evenodd"></path><path id="path2" d="M174.800 53.186 C 173.142 54.460,173.424 57.858,175.200 58.005 C 177.337 58.183,178.400 57.991,178.400 57.429 C 178.400 57.114,178.679 56.579,179.019 56.238 C 180.867 54.390,176.935 51.546,174.800 53.186 M164.145 65.000 C 164.018 65.330,163.664 65.600,163.357 65.600 C 163.005 65.600,162.800 66.041,162.800 66.800 C 162.800 67.600,163.000 68.000,163.400 68.000 C 163.730 68.000,164.000 68.161,164.000 68.357 C 164.000 69.276,165.317 69.095,166.441 68.021 L 167.658 66.858 166.563 65.629 C 165.368 64.288,164.504 64.064,164.145 65.000 M182.300 65.157 C 181.294 66.177,181.434 67.027,182.762 67.973 C 183.996 68.852,185.200 69.063,185.200 68.400 C 185.200 68.180,185.470 68.000,185.800 68.000 C 186.587 68.000,186.608 65.751,185.829 64.971 C 185.050 64.193,183.153 64.293,182.300 65.157 M172.700 72.046 C 170.811 73.456,171.634 75.600,174.064 75.600 C 176.503 75.600,177.388 73.139,175.414 71.846 C 174.176 71.035,174.042 71.045,172.700 72.046 M191.056 72.877 C 189.942 74.091,190.835 75.600,192.668 75.600 C 193.980 75.600,194.000 75.573,194.000 73.800 C 194.000 71.730,192.532 71.270,191.056 72.877 M163.900 84.129 C 162.717 85.098,162.399 86.800,163.400 86.800 C 163.730 86.800,164.000 86.980,164.000 87.200 C 164.000 87.998,165.878 87.575,166.741 86.582 L 167.626 85.564 166.444 84.382 C 165.048 82.986,165.269 83.008,163.900 84.129 M186.700 87.233 C 185.470 88.580,186.254 90.000,188.227 90.000 C 189.737 90.000,190.403 88.991,189.854 87.536 C 189.341 86.177,187.799 86.029,186.700 87.233 M175.333 93.046 C 174.115 94.906,176.281 97.376,177.799 95.858 C 178.953 94.704,178.158 92.000,176.665 92.000 C 176.309 92.000,175.710 92.471,175.333 93.046 M334.400 137.739 C 331.723 139.816,331.202 142.826,333.200 144.670 C 335.431 146.728,336.747 147.609,336.994 147.210 C 337.133 146.985,337.777 146.800,338.424 146.800 C 340.297 146.800,342.700 144.109,341.998 142.797 C 341.645 142.136,341.645 141.658,341.998 140.804 C 342.507 139.575,340.419 136.727,339.286 137.105 C 339.004 137.199,338.336 136.988,337.801 136.638 C 336.604 135.853,336.995 135.726,334.400 137.739 M337.200 137.780 C 337.200 138.316,335.288 139.021,334.896 138.629 C 334.604 138.338,336.527 136.831,336.898 137.061 C 337.064 137.163,337.200 137.487,337.200 137.780 M334.400 139.400 C 334.400 139.730,334.108 140.000,333.751 140.000 C 333.220 140.000,333.192 139.891,333.600 139.400 C 333.874 139.070,334.166 138.800,334.249 138.800 C 334.332 138.800,334.400 139.070,334.400 139.400 M115.329 139.911 C 113.363 140.849,113.181 143.383,114.971 144.880 C 116.920 146.510,119.600 145.030,119.600 142.323 C 119.600 140.061,117.500 138.875,115.329 139.911 M339.119 140.500 C 340.175 142.714,337.596 145.090,335.776 143.580 C 334.942 142.888,335.028 140.142,335.900 139.623 C 337.099 138.908,338.548 139.303,339.119 140.500 M341.083 142.095 C 340.987 142.593,340.905 142.280,340.901 141.400 C 340.896 140.520,340.975 140.113,341.075 140.495 C 341.175 140.878,341.179 141.598,341.083 142.095 M118.799 141.397 C 119.488 143.210,118.620 144.384,116.580 144.394 C 115.088 144.401,114.400 143.772,114.400 142.400 C 114.400 140.217,118.035 139.388,118.799 141.397 M0.642 141.887 C 0.031 142.043,-0.008 142.151,0.442 142.441 C 0.914 142.745,0.908 142.861,0.400 143.200 C -0.014 143.476,-0.063 143.693,0.240 143.900 C 1.638 144.853,1.900 146.727,0.800 147.908 C -0.171 148.950,-0.199 149.200,0.656 149.200 C 1.603 149.200,2.373 148.000,2.387 146.500 C 2.403 144.929,3.026 144.777,3.312 146.275 C 3.593 147.746,3.402 148.098,1.591 149.437 C 0.726 150.077,0.015 150.714,0.009 150.853 C -0.009 151.361,1.788 151.565,2.060 151.087 C 2.212 150.819,2.881 149.793,3.546 148.807 C 4.612 147.226,4.687 146.938,4.178 146.375 C 3.468 145.591,3.427 144.524,4.098 144.301 C 4.562 144.146,2.116 141.535,1.611 141.646 C 1.495 141.672,1.059 141.780,0.642 141.887 M337.423 144.800 C 339.091 144.800,339.600 144.660,339.600 144.200 C 339.600 143.870,339.904 143.600,340.275 143.600 C 341.386 143.600,338.939 145.872,337.523 146.155 C 336.097 146.441,332.688 144.163,333.651 143.569 C 333.969 143.372,334.366 143.545,334.704 144.026 C 335.126 144.630,335.724 144.800,337.423 144.800 M350.900 143.870 C 350.165 144.382,349.887 144.404,349.388 143.990 C 348.643 143.372,346.268 145.727,346.579 146.775 C 346.681 147.119,346.534 147.819,346.252 148.330 C 345.368 149.935,347.928 154.302,349.264 153.467 C 349.750 153.164,350.251 153.186,351.040 153.546 C 351.998 153.982,352.283 153.941,353.248 153.228 C 353.886 152.756,354.663 152.507,355.078 152.642 C 355.621 152.818,355.666 152.779,355.258 152.488 C 354.809 152.167,354.836 151.917,355.412 151.037 C 357.614 147.677,353.900 141.777,350.900 143.870 M352.567 144.643 C 353.795 145.114,353.178 145.404,351.300 145.238 C 349.714 145.098,349.565 145.022,350.400 144.775 C 351.767 144.371,351.847 144.366,352.567 144.643 M390.067 146.079 L 390.134 147.800 390.291 146.300 C 390.425 145.019,390.591 144.800,391.424 144.800 L 392.400 144.800 392.400 149.413 C 392.400 153.812,392.358 154.044,391.500 154.424 C 390.740 154.759,390.810 154.789,391.950 154.611 C 392.693 154.495,393.553 154.400,393.862 154.400 C 394.321 154.400,394.404 153.496,394.312 149.500 L 394.200 144.600 392.100 144.479 L 390.000 144.358 390.067 146.079 M352.525 146.575 C 354.033 147.719,353.297 150.576,351.455 150.727 C 348.685 150.954,347.523 148.774,349.458 146.981 C 350.648 145.878,351.463 145.770,352.525 146.575 M354.540 146.587 C 354.664 146.910,354.613 147.268,354.428 147.383 C 354.243 147.497,353.997 147.233,353.883 146.796 C 353.644 145.881,354.201 145.704,354.540 146.587 M129.140 146.668 C 128.039 146.960,127.448 148.928,127.978 150.534 C 128.994 153.611,133.600 152.640,133.600 149.350 C 133.600 147.128,131.703 145.988,129.140 146.668 M132.000 147.600 C 133.423 149.023,132.476 152.000,130.600 152.000 C 128.687 152.000,127.744 148.863,129.261 147.547 C 130.362 146.592,131.004 146.604,132.000 147.600 M159.149 148.083 C 158.130 148.767,156.983 149.884,156.600 150.564 C 155.948 151.720,155.983 151.706,157.151 150.336 C 157.837 149.531,159.334 148.406,160.478 147.836 C 161.621 147.266,162.207 146.808,161.779 146.819 C 161.350 146.829,160.167 147.398,159.149 148.083 M165.346 147.402 C 165.976 147.731,166.696 147.994,166.946 147.986 C 167.600 147.965,165.517 146.831,164.800 146.817 C 164.470 146.810,164.716 147.074,165.346 147.402 M290.224 147.413 C 289.236 148.160,289.885 148.152,291.200 147.400 C 291.780 147.068,291.948 146.828,291.600 146.827 C 291.270 146.826,290.651 147.090,290.224 147.413 M295.602 147.532 C 300.603 149.915,303.099 154.881,299.400 155.091 C 298.072 155.166,297.953 155.117,298.700 154.803 C 300.725 153.954,299.248 151.271,297.058 151.821 C 296.203 152.036,296.120 151.951,296.294 151.043 C 296.553 149.686,294.737 148.692,293.769 149.660 C 292.849 150.579,293.661 152.400,294.990 152.400 C 295.804 152.400,296.000 152.596,296.000 153.413 C 296.000 154.089,296.299 154.546,296.900 154.788 C 297.498 155.028,295.730 155.158,291.633 155.175 C 288.242 155.189,285.570 155.303,285.696 155.430 C 286.017 155.750,300.066 155.703,300.911 155.379 C 303.495 154.387,298.031 146.675,294.855 146.832 C 294.495 146.850,294.831 147.165,295.602 147.532 M348.808 150.946 C 349.770 151.755,349.860 151.968,349.328 152.172 C 348.057 152.660,347.194 151.262,347.270 148.838 C 347.331 146.866,347.358 146.800,347.492 148.283 C 347.606 149.541,347.939 150.214,348.808 150.946 M9.334 149.450 C 8.637 150.168,8.264 150.821,8.506 150.902 C 8.958 151.053,8.774 151.668,7.903 152.923 C 7.482 153.529,7.520 153.736,8.136 154.194 C 8.624 154.556,8.787 155.011,8.619 155.539 C 8.282 156.601,10.474 158.966,11.159 158.281 C 11.493 157.947,11.920 157.945,12.791 158.274 C 14.151 158.787,15.399 157.923,16.572 155.655 C 16.929 154.965,17.492 154.400,17.823 154.400 C 18.763 154.400,18.971 153.252,18.188 152.386 C 17.797 151.955,17.494 151.044,17.513 150.361 C 17.543 149.323,17.422 149.153,16.774 149.323 C 16.348 149.434,16.000 149.384,16.000 149.211 C 16.000 148.503,13.761 147.958,12.625 148.391 C 12.002 148.627,11.302 148.668,11.051 148.481 C 10.768 148.270,10.128 148.631,9.334 149.450 M167.600 148.164 C 167.600 148.322,168.131 148.898,168.780 149.444 C 169.738 150.251,172.000 154.125,172.000 154.960 C 172.000 155.076,170.335 155.229,168.300 155.302 L 164.600 155.434 168.313 155.517 C 171.086 155.579,172.077 155.466,172.228 155.070 C 172.476 154.425,171.113 151.301,170.103 150.200 C 168.958 148.951,167.600 147.846,167.600 148.164 M288.302 148.556 C 287.343 149.284,285.200 152.019,285.200 152.515 C 285.200 152.738,285.771 152.132,286.469 151.168 C 287.167 150.205,288.112 149.104,288.569 148.722 C 289.539 147.910,289.326 147.778,288.302 148.556 M15.200 149.562 C 15.200 149.888,12.036 149.695,11.633 149.345 C 11.542 149.265,12.307 149.200,13.333 149.200 C 14.360 149.200,15.200 149.363,15.200 149.562 M164.100 149.612 C 162.619 150.208,163.304 152.400,164.971 152.400 C 166.079 152.400,166.730 150.679,165.968 149.762 C 165.438 149.123,165.338 149.115,164.100 149.612 M165.600 150.600 C 165.600 151.277,165.530 151.301,164.599 150.944 C 164.068 150.740,164.041 150.620,164.466 150.350 C 165.255 149.851,165.600 149.927,165.600 150.600 M354.970 150.352 C 355.291 150.871,353.213 152.800,352.333 152.800 C 351.698 152.800,351.789 152.580,352.888 151.448 C 354.308 149.984,354.636 149.812,354.970 150.352 M14.426 151.214 C 15.014 151.529,15.200 152.058,15.200 153.414 L 15.200 155.200 13.247 155.200 C 11.559 155.200,11.260 155.078,11.052 154.300 C 10.378 151.783,12.264 150.057,14.426 151.214 M157.772 151.771 C 157.115 154.387,159.720 155.821,161.104 153.606 C 161.957 152.239,161.093 150.800,159.418 150.800 C 158.266 150.800,157.972 150.974,157.772 151.771 M287.680 151.280 C 286.279 152.681,288.230 155.347,289.973 154.414 C 291.520 153.586,291.140 150.800,289.480 150.800 C 288.754 150.800,287.944 151.016,287.680 151.280 M10.787 155.786 C 11.319 156.352,12.185 156.800,12.750 156.800 C 13.381 156.800,13.618 156.940,13.380 157.175 C 12.769 157.777,10.000 156.734,10.000 155.902 C 10.000 155.516,9.832 155.200,9.627 155.200 C 9.019 155.200,8.717 153.677,9.051 152.291 C 9.360 151.011,9.364 151.016,9.598 152.886 C 9.747 154.080,10.183 155.143,10.787 155.786 M160.327 152.502 C 160.480 153.831,159.438 154.409,158.528 153.499 C 157.653 152.624,158.200 151.115,159.334 151.277 C 159.943 151.363,160.238 151.727,160.327 152.502 M290.400 152.151 C 290.400 153.623,289.370 154.278,288.415 153.414 C 287.782 152.841,287.729 152.582,288.119 151.958 C 288.828 150.822,290.400 150.955,290.400 152.151 M166.868 151.950 C 165.674 152.707,166.482 154.600,168.000 154.600 C 169.247 154.600,169.414 154.473,169.532 153.443 C 169.666 152.271,169.115 151.612,168.000 151.612 C 167.670 151.612,167.161 151.764,166.868 151.950 M155.232 152.739 C 154.579 153.960,154.714 154.300,155.441 153.263 C 155.793 152.760,155.988 152.254,155.873 152.140 C 155.759 152.025,155.470 152.295,155.232 152.739 M168.728 153.300 C 168.658 153.795,168.330 154.200,168.000 154.200 C 167.670 154.200,167.342 153.795,167.272 153.300 C 167.174 152.607,167.341 152.400,168.000 152.400 C 168.659 152.400,168.826 152.607,168.728 153.300 M298.400 153.176 C 298.400 153.603,298.256 154.042,298.081 154.150 C 297.511 154.502,296.677 153.698,296.929 153.040 C 297.276 152.137,298.400 152.240,298.400 153.176 M308.200 154.000 C 308.055 154.458,307.595 154.800,307.124 154.800 C 306.442 154.800,306.386 154.901,306.796 155.395 C 307.067 155.722,307.167 156.307,307.016 156.695 C 306.761 157.353,306.704 157.347,306.161 156.609 C 305.711 155.997,305.428 155.913,304.913 156.237 C 303.901 156.876,303.386 158.765,304.054 159.390 C 304.696 159.991,309.059 160.552,309.356 160.072 C 309.468 159.890,308.454 159.712,307.103 159.674 C 304.282 159.597,303.853 159.326,304.221 157.858 C 304.531 156.623,304.691 156.577,305.654 157.449 C 306.654 158.353,307.523 157.882,307.673 156.354 C 307.795 155.114,308.787 154.168,308.813 155.267 C 308.861 157.315,312.301 158.781,313.112 157.100 C 313.497 156.301,313.549 156.394,313.573 157.940 L 313.600 159.681 311.819 159.539 C 310.839 159.461,310.185 159.545,310.366 159.726 C 311.566 160.926,313.800 159.800,313.921 157.934 C 314.133 154.646,309.095 151.181,308.200 154.000 M311.800 154.400 C 312.502 155.175,312.499 155.200,311.705 155.200 C 311.254 155.200,310.774 154.910,310.638 154.555 C 310.481 154.145,310.099 153.985,309.595 154.117 C 309.158 154.232,308.800 154.162,308.800 153.963 C 308.800 153.271,311.079 153.603,311.800 154.400 M195.405 155.849 C 195.072 156.646,194.814 157.591,194.831 157.949 C 194.848 158.307,195.172 157.720,195.551 156.644 L 196.240 154.688 196.776 156.444 C 197.071 157.410,197.381 158.007,197.466 157.772 C 197.626 157.323,196.529 154.400,196.200 154.400 C 196.096 154.400,195.738 155.052,195.405 155.849 M159.600 155.180 L 155.000 155.400 159.200 155.658 C 162.516 155.862,163.523 155.798,163.986 155.358 C 164.308 155.051,164.488 154.836,164.386 154.880 C 164.284 154.924,162.130 155.059,159.600 155.180 M15.200 156.600 C 15.200 156.930,14.908 157.200,14.551 157.200 C 14.020 157.200,13.992 157.091,14.400 156.600 C 14.674 156.270,14.966 156.000,15.049 156.000 C 15.132 156.000,15.200 156.270,15.200 156.600 M191.468 159.466 C 191.346 159.588,191.876 160.336,192.647 161.129 C 194.208 162.737,194.839 162.456,194.730 160.200 L 194.672 159.000 194.511 160.300 C 194.311 161.906,193.949 161.930,192.680 160.422 C 192.135 159.774,191.589 159.344,191.468 159.466 M197.660 160.337 C 197.614 161.367,197.784 161.723,198.400 161.884 C 198.840 161.999,199.203 162.297,199.206 162.547 C 199.210 162.805,199.366 162.757,199.569 162.436 C 200.090 161.613,199.664 160.858,198.804 161.083 C 198.231 161.233,198.021 161.016,197.890 160.139 C 197.729 159.060,197.717 159.071,197.660 160.337 M191.200 161.239 C 191.200 161.581,192.773 165.707,192.984 165.917 C 193.333 166.267,193.244 165.909,192.416 163.644 C 191.726 161.757,191.200 160.716,191.200 161.239 " stroke="none" fill="#ff5c70" fill-rule="evenodd"></path><path id="path3" d="M174.694 34.016 C 166.299 36.102,158.939 46.337,154.284 62.400 C 152.946 67.017,152.823 67.620,151.522 76.000 C 151.300 77.430,151.079 84.000,151.031 90.600 L 150.944 102.600 148.972 102.693 C 124.478 103.854,121.790 139.549,145.800 144.809 C 149.407 145.599,149.201 145.007,149.194 154.549 C 149.188 162.388,148.816 165.717,148.228 163.179 C 147.740 161.068,146.800 155.038,146.800 154.014 C 146.800 151.841,145.345 152.102,144.990 154.339 C 144.862 155.142,144.510 156.700,144.209 157.800 C 143.907 158.900,143.546 160.486,143.407 161.325 C 143.101 163.175,141.923 163.252,141.603 161.443 C 141.281 159.626,139.707 158.787,139.388 160.263 C 138.623 163.799,137.214 165.263,135.992 163.790 C 135.539 163.244,135.410 163.248,134.774 163.824 C 133.930 164.588,133.089 163.608,132.607 161.300 C 132.270 159.682,131.800 159.652,131.000 161.200 C 130.127 162.888,128.400 162.170,128.400 160.119 C 128.400 159.669,128.127 158.526,127.793 157.579 C 127.314 156.222,127.279 155.573,127.629 154.513 C 128.154 152.922,127.626 152.000,126.190 152.000 C 125.531 152.000,125.159 152.342,124.848 153.234 C 124.611 153.913,123.812 155.308,123.072 156.334 C 122.332 157.360,121.604 158.541,121.454 158.957 C 120.951 160.354,120.602 159.164,120.313 155.067 C 120.022 150.939,119.494 147.360,119.120 146.987 C 118.521 146.388,117.542 147.374,117.761 148.357 C 119.205 154.830,118.776 158.493,116.797 156.597 C 115.255 155.119,114.800 155.586,114.800 158.647 C 114.800 160.279,114.651 161.155,114.400 161.000 C 114.180 160.864,113.999 160.268,113.998 159.676 C 113.997 159.084,113.571 158.069,113.052 157.420 L 112.108 156.240 111.254 158.171 C 110.784 159.233,110.400 160.338,110.400 160.627 C 110.400 160.916,110.233 161.256,110.030 161.382 C 109.627 161.630,108.404 157.859,108.394 156.338 C 108.368 152.378,107.377 154.547,106.999 159.392 C 106.686 163.404,105.596 164.555,104.824 161.688 C 104.111 159.043,103.360 158.351,102.774 159.800 L 102.288 161.000 101.984 160.000 C 101.817 159.450,101.662 158.577,101.640 158.060 C 101.593 156.945,100.445 154.400,99.990 154.400 C 99.814 154.400,99.541 155.165,99.384 156.100 C 99.227 157.035,98.773 158.214,98.375 158.721 C 97.978 159.227,97.528 160.667,97.376 161.921 C 97.060 164.527,96.670 165.433,95.319 166.700 C 93.762 168.160,93.407 167.935,92.833 165.127 C 92.639 164.177,92.102 161.976,91.640 160.236 C 91.160 158.427,90.800 155.847,90.800 154.210 L 90.800 151.348 93.168 148.536 L 95.536 145.723 99.232 145.483 C 104.286 145.156,104.382 145.040,103.447 140.419 L 102.724 136.837 104.062 134.919 C 104.798 133.863,105.528 132.942,105.685 132.872 C 105.842 132.801,106.354 132.121,106.824 131.360 C 107.904 129.613,107.689 129.335,103.773 127.425 C 100.444 125.802,100.238 125.514,98.910 120.600 C 98.102 117.610,96.963 117.011,95.169 118.630 C 94.821 118.943,94.346 119.200,94.112 119.200 C 93.879 119.200,92.920 119.544,91.982 119.963 C 90.137 120.789,90.082 120.780,86.200 118.970 C 82.795 117.383,82.078 117.333,81.774 118.661 C 81.630 119.287,81.262 120.571,80.956 121.514 C 80.650 122.457,80.400 123.575,80.400 123.998 C 80.400 125.064,79.342 125.939,75.822 127.786 C 72.208 129.683,72.212 129.648,75.037 133.467 C 77.483 136.775,77.510 136.937,76.435 141.777 C 75.675 145.194,76.240 145.600,81.750 145.600 L 84.600 145.600 86.200 147.464 C 88.380 150.004,88.340 149.835,88.372 156.624 C 88.403 163.316,88.032 164.678,86.442 163.707 C 85.752 163.286,85.547 163.340,85.031 164.077 C 84.578 164.723,84.387 164.796,84.263 164.369 C 83.886 163.073,82.800 156.451,82.800 155.453 C 82.800 154.497,81.871 153.595,81.386 154.081 C 81.197 154.269,80.117 159.872,79.744 162.600 C 79.152 166.925,78.016 168.397,76.970 166.194 C 76.067 164.291,75.737 164.175,75.043 165.516 C 73.676 168.160,73.409 167.950,71.799 162.970 C 70.094 157.695,69.263 157.448,68.407 161.963 C 67.828 165.019,67.318 165.520,66.113 164.220 C 65.416 163.468,64.911 163.257,64.219 163.431 C 63.519 163.607,63.223 163.478,63.072 162.934 C 62.733 161.711,62.028 158.290,61.800 156.755 C 61.322 153.547,60.115 153.621,59.826 156.877 C 59.589 159.556,58.972 164.160,58.571 166.256 C 58.135 168.531,55.823 167.373,55.396 164.664 C 55.251 163.749,54.976 162.370,54.785 161.600 C 54.593 160.830,54.335 159.705,54.211 159.100 C 53.877 157.476,53.560 157.712,51.845 160.861 L 50.290 163.716 49.443 160.391 C 48.484 156.623,47.833 155.984,47.442 158.429 C 47.102 160.552,46.278 163.200,45.957 163.200 C 45.633 163.200,45.200 159.999,45.200 157.606 C 45.200 156.262,44.982 155.527,44.436 155.033 C 43.540 154.221,43.444 154.399,42.969 157.758 L 42.692 159.717 41.961 158.758 C 41.559 158.231,41.107 156.996,40.956 156.013 C 40.806 155.030,40.368 153.524,39.984 152.665 C 39.205 150.925,39.098 151.071,38.566 154.600 C 38.174 157.202,37.719 155.638,37.647 151.441 C 37.597 148.480,37.469 148.732,41.399 144.045 C 44.895 139.877,45.030 139.778,46.492 140.307 C 49.153 141.269,54.784 140.716,56.431 139.331 C 56.779 139.039,57.244 138.800,57.465 138.800 C 57.686 138.800,58.529 138.138,59.338 137.329 C 67.012 129.655,61.488 116.000,50.711 116.000 C 48.255 116.000,48.143 115.953,46.486 114.244 C 40.878 108.457,31.595 108.797,27.136 114.953 L 25.942 116.600 22.591 116.630 C 17.790 116.674,15.073 118.023,11.907 121.937 C 9.266 125.201,9.102 132.977,11.609 136.141 C 15.223 140.704,17.442 141.772,22.771 141.516 C 25.623 141.378,27.005 141.125,27.956 140.564 L 29.254 139.800 30.727 141.402 C 31.537 142.283,32.650 143.599,33.200 144.327 C 33.750 145.056,34.692 146.225,35.294 146.926 C 36.286 148.082,36.383 148.479,36.346 151.200 C 36.307 154.096,35.754 157.682,35.647 155.733 C 35.539 153.748,34.400 152.937,34.400 154.844 C 34.400 157.238,31.555 160.548,31.000 158.800 C 30.586 157.497,30.200 157.863,29.377 160.338 C 28.950 161.625,28.429 162.713,28.220 162.757 C 27.805 162.845,26.444 157.668,26.417 155.900 C 26.408 155.295,26.220 154.800,26.000 154.800 C 25.780 154.800,25.600 155.042,25.600 155.338 C 25.600 155.634,25.250 156.193,24.823 156.579 C 24.395 156.966,23.936 157.782,23.802 158.391 C 23.271 160.809,20.833 161.874,20.806 159.700 C 20.799 159.102,20.148 159.037,19.800 159.600 C 19.105 160.725,18.000 159.988,18.000 158.400 C 18.000 157.520,18.180 156.800,18.400 156.800 C 18.620 156.800,18.800 156.440,18.800 156.000 C 18.800 155.560,18.580 155.200,18.311 155.200 C 18.042 155.200,18.222 154.920,18.711 154.577 C 19.725 153.867,19.891 152.487,19.003 152.146 C 18.612 151.996,18.484 151.605,18.631 151.018 C 18.922 149.861,16.672 147.460,15.613 147.796 C 15.228 147.918,14.721 147.787,14.486 147.504 C 13.821 146.703,10.481 147.101,9.978 148.041 C 9.755 148.458,9.398 148.800,9.186 148.800 C 8.241 148.800,7.133 150.438,7.654 151.065 C 8.073 151.570,8.042 151.745,7.481 152.059 C 6.607 152.548,6.597 154.237,7.467 154.570 C 7.957 154.758,8.016 154.944,7.689 155.271 C 7.444 155.516,7.346 156.230,7.472 156.858 C 7.697 157.983,7.125 158.450,6.588 157.581 C 6.132 156.843,5.383 157.861,4.797 160.011 C 4.135 162.442,3.711 162.832,3.378 161.316 C 3.243 160.702,3.046 159.930,2.939 159.600 C 1.992 156.673,2.052 151.200,3.031 151.200 C 3.826 151.200,5.175 149.600,4.926 148.951 C 4.807 148.642,4.939 148.114,5.218 147.778 C 5.589 147.332,5.607 147.047,5.285 146.725 C 5.042 146.482,4.937 145.813,5.052 145.238 C 5.220 144.400,4.906 143.816,3.470 142.296 C 1.534 140.246,0.000 139.781,0.000 141.243 C 0.000 141.925,0.178 142.042,0.924 141.855 C 1.949 141.597,5.048 143.984,4.098 144.301 C 3.431 144.523,3.467 145.589,4.168 146.369 C 5.045 147.342,2.207 151.653,0.900 151.334 C -0.087 151.092,-0.529 154.157,0.445 154.482 C 1.245 154.748,1.447 162.000,0.655 162.000 C 0.083 162.000,0.000 162.634,0.000 167.000 L 0.000 172.000 200.000 172.000 L 400.000 172.000 400.000 162.800 C 400.000 156.933,399.855 153.600,399.600 153.600 C 399.380 153.600,399.200 153.318,399.200 152.974 C 399.200 152.630,398.220 151.368,397.022 150.170 C 395.076 148.223,394.831 147.789,394.722 146.096 L 394.600 144.200 392.200 144.200 L 389.800 144.200 389.677 145.686 C 389.563 147.053,389.435 147.194,388.077 147.440 C 385.230 147.957,381.972 150.197,381.387 152.040 C 381.080 153.008,380.372 152.998,378.306 152.000 C 374.760 150.287,370.705 151.641,368.817 155.168 C 368.211 156.301,367.269 156.216,366.964 155.000 C 366.525 153.249,365.600 154.094,365.600 156.247 C 365.600 157.041,365.237 157.379,363.700 158.014 C 362.655 158.446,361.487 158.980,361.105 159.200 C 360.018 159.826,359.357 159.676,358.909 158.700 C 358.525 157.866,358.474 157.918,358.217 159.400 C 358.064 160.280,357.780 161.450,357.586 162.000 C 357.392 162.550,357.113 163.688,356.966 164.530 C 356.579 166.752,356.273 166.203,354.214 159.600 C 353.836 158.390,353.441 157.130,353.335 156.800 C 353.082 156.016,351.200 158.109,351.200 159.173 C 351.200 159.574,350.916 160.138,350.570 160.425 C 349.800 161.064,349.219 160.375,349.201 158.800 C 349.170 156.112,347.912 154.938,347.464 157.178 C 347.209 158.455,345.907 159.403,344.926 159.027 C 344.026 158.682,344.597 156.868,346.097 155.309 C 347.049 154.320,347.464 154.121,347.871 154.459 C 348.172 154.708,348.947 154.791,349.658 154.648 C 350.395 154.501,351.146 154.589,351.474 154.862 C 351.898 155.213,352.146 155.214,352.497 154.863 C 352.752 154.608,353.270 154.400,353.649 154.400 C 354.691 154.400,356.898 152.017,356.668 151.139 C 356.562 150.733,356.638 150.300,356.838 150.177 C 358.070 149.415,356.372 143.667,354.900 143.617 C 354.625 143.608,354.400 143.426,354.400 143.213 C 354.400 142.999,354.128 142.930,353.795 143.057 C 353.462 143.185,352.967 143.108,352.695 142.887 C 351.951 142.282,348.869 142.595,348.087 143.355 C 347.709 143.722,346.892 144.470,346.272 145.018 C 345.105 146.048,344.247 150.000,345.191 150.000 C 346.021 150.000,345.616 152.904,344.600 154.236 C 344.050 154.957,343.600 155.656,343.600 155.790 C 343.600 156.306,341.825 158.400,341.387 158.400 C 340.742 158.400,339.976 148.530,340.526 147.300 C 340.747 146.805,341.080 146.400,341.264 146.400 C 341.449 146.400,341.600 146.040,341.600 145.600 C 341.600 145.160,341.825 144.799,342.100 144.797 C 343.000 144.791,343.722 142.679,343.005 142.154 C 342.458 141.754,342.457 141.651,342.996 141.204 C 343.795 140.541,343.763 140.326,342.700 139.183 C 342.205 138.651,341.850 138.062,341.911 137.874 C 342.367 136.474,336.687 134.655,335.771 135.908 C 335.391 136.427,335.164 136.468,334.720 136.099 C 334.044 135.539,333.123 136.447,331.716 139.060 C 330.935 140.513,330.897 140.783,331.416 141.213 C 331.844 141.568,331.892 141.849,331.588 142.215 C 331.121 142.777,331.478 144.800,332.043 144.800 C 332.240 144.800,332.400 145.139,332.400 145.554 C 332.400 146.606,334.276 147.801,334.993 147.206 C 335.411 146.859,335.592 146.943,335.794 147.580 C 335.991 148.201,336.280 148.345,336.979 148.170 C 338.244 147.852,339.200 150.650,339.200 154.671 C 339.200 157.980,339.079 158.105,337.599 156.331 C 335.466 153.776,334.735 155.694,335.670 161.396 C 336.005 163.441,332.205 161.783,331.783 159.700 C 331.682 159.205,331.500 158.324,331.378 157.742 C 331.083 156.336,330.629 156.908,329.839 159.680 C 329.482 160.933,329.012 162.069,328.795 162.203 C 328.578 162.337,328.400 162.797,328.400 163.224 C 328.400 164.125,328.254 164.165,327.254 163.541 C 326.654 163.166,326.360 163.240,325.659 163.941 C 324.432 165.168,324.107 165.022,323.788 163.100 C 323.633 162.165,323.236 160.874,322.907 160.231 L 322.308 159.062 321.568 160.031 C 321.160 160.564,320.390 162.350,319.857 164.000 C 318.783 167.317,317.995 167.918,317.208 166.019 C 316.930 165.348,316.558 164.800,316.380 164.800 C 315.849 164.800,314.800 166.014,314.800 166.629 C 314.800 166.943,314.648 167.200,314.462 167.200 C 313.921 167.200,312.800 165.795,312.800 165.117 C 312.800 164.777,312.530 163.851,312.200 163.062 C 311.356 161.041,311.434 160.400,312.524 160.400 C 316.522 160.400,314.750 153.822,310.494 152.866 C 309.028 152.536,308.716 152.585,308.276 153.213 C 307.995 153.615,307.308 154.058,306.750 154.198 C 305.382 154.541,303.600 156.249,303.600 157.216 C 303.600 157.647,303.423 158.000,303.208 158.000 C 302.779 158.000,302.575 157.239,302.191 154.200 C 301.413 148.049,293.515 144.067,288.873 147.485 C 286.965 148.890,286.000 149.863,286.000 150.383 C 286.000 150.612,285.855 150.800,285.677 150.800 C 285.161 150.800,284.172 153.538,283.439 157.000 C 283.066 158.760,282.663 160.650,282.544 161.200 C 282.286 162.394,281.145 160.551,280.612 158.078 C 280.056 155.499,279.093 156.619,278.011 161.102 C 277.468 163.356,276.902 165.200,276.755 165.200 C 275.359 165.200,274.420 151.576,275.700 149.897 C 275.975 149.537,278.057 147.890,280.327 146.238 L 284.455 143.235 286.087 144.417 C 290.686 147.748,297.200 144.336,297.200 138.596 C 297.200 133.294,291.684 129.995,286.781 132.364 C 284.875 133.284,284.702 132.791,286.122 130.492 C 294.104 117.576,276.040 104.067,265.226 114.865 C 260.577 119.508,260.370 128.268,264.802 132.802 C 266.355 134.391,266.350 134.400,263.985 134.400 C 259.113 134.400,256.552 140.642,259.974 144.174 C 261.738 145.993,263.524 146.357,266.135 145.429 L 268.089 144.736 269.144 145.708 C 269.725 146.243,271.055 147.468,272.100 148.430 L 274.000 150.180 274.000 153.044 C 274.000 154.807,273.770 156.349,273.402 157.054 C 273.074 157.684,272.804 158.536,272.802 158.947 C 272.801 159.358,272.260 160.309,271.600 161.061 C 270.940 161.813,270.400 162.582,270.400 162.771 C 270.400 163.415,269.060 163.631,268.505 163.077 C 268.202 162.773,267.761 161.228,267.525 159.643 C 267.102 156.789,265.853 154.304,265.493 155.600 C 265.401 155.930,265.028 157.124,264.663 158.254 C 264.298 159.383,264.000 160.675,264.000 161.125 C 264.000 163.232,262.044 163.500,261.993 161.400 C 261.975 160.673,260.742 158.800,260.281 158.800 C 260.176 158.800,259.673 160.071,259.164 161.625 C 258.342 164.131,258.145 164.420,257.419 164.177 C 256.968 164.026,255.886 163.880,255.014 163.852 C 253.479 163.802,253.417 163.745,253.090 162.100 C 252.590 159.580,250.800 159.840,250.800 162.433 C 250.800 164.482,249.324 162.762,248.825 160.131 C 248.617 159.037,248.278 157.705,248.070 157.171 C 247.862 156.637,247.376 154.850,246.990 153.200 C 246.161 149.654,245.731 148.999,245.450 150.848 C 245.337 151.592,244.964 154.008,244.622 156.217 C 244.280 158.427,244.000 160.992,244.000 161.917 C 244.000 162.843,243.848 163.600,243.662 163.600 C 243.212 163.600,242.000 162.242,242.000 161.738 C 242.000 161.186,240.420 159.846,239.115 159.292 C 238.064 158.845,238.023 158.877,237.782 160.316 C 237.034 164.784,235.839 166.857,235.442 164.375 C 235.301 163.490,235.025 162.458,234.830 162.083 C 234.635 161.707,234.160 160.275,233.774 158.900 C 233.144 156.651,232.000 155.408,232.000 156.971 C 232.000 157.797,230.764 158.924,230.333 158.493 C 230.136 158.296,230.025 155.899,230.087 153.167 L 230.200 148.200 233.400 147.961 C 238.796 147.559,242.818 145.057,244.809 140.864 C 245.348 139.729,245.983 138.800,246.220 138.800 C 246.776 138.800,248.487 136.905,249.170 135.531 C 249.590 134.687,249.610 133.927,249.268 131.931 C 249.029 130.539,248.719 128.320,248.581 127.000 C 247.699 118.611,244.302 111.991,243.342 116.791 C 243.209 117.456,242.967 118.000,242.804 118.000 C 242.046 118.000,240.338 127.423,240.110 132.860 L 239.949 136.720 241.374 137.808 C 243.170 139.177,243.157 139.482,241.211 141.693 C 239.196 143.982,236.094 145.313,232.657 145.364 L 230.200 145.400 230.200 138.800 L 230.200 132.200 231.454 132.078 C 233.165 131.912,235.609 129.722,236.728 127.352 C 237.235 126.278,237.819 125.087,238.025 124.705 C 238.469 123.882,238.534 116.266,238.100 115.836 C 237.935 115.673,237.586 113.618,237.324 111.270 C 236.663 105.351,236.080 101.606,235.604 100.240 C 235.382 99.602,235.200 98.499,235.200 97.789 C 235.200 97.079,234.930 95.851,234.600 95.062 C 234.270 94.272,234.000 93.001,234.000 92.236 C 234.000 91.472,233.837 90.746,233.637 90.623 C 233.438 90.500,233.151 89.499,233.000 88.400 C 232.849 87.300,232.582 86.400,232.407 86.400 C 232.232 86.400,231.978 85.807,231.842 85.081 C 231.155 81.419,227.717 80.062,226.352 82.913 C 225.044 85.644,224.462 87.037,224.226 88.000 C 224.091 88.550,223.705 89.990,223.370 91.200 C 222.341 94.906,220.493 104.890,220.001 109.400 C 219.809 111.160,219.461 113.570,219.226 114.755 C 217.538 123.287,219.526 128.658,225.092 130.609 C 227.923 131.601,227.600 129.850,227.600 144.200 L 227.600 156.400 225.391 156.400 C 221.912 156.400,217.994 154.399,216.034 151.622 L 215.067 150.253 216.021 149.626 C 218.951 147.700,219.009 147.579,218.898 143.531 C 218.842 141.479,218.597 138.810,218.353 137.600 C 218.109 136.390,217.780 134.590,217.621 133.600 C 216.980 129.608,215.699 126.800,214.519 126.800 C 213.867 126.800,212.400 129.679,212.400 130.958 C 212.400 131.502,212.200 132.455,211.956 133.074 C 211.712 133.693,211.360 135.370,211.173 136.800 C 210.986 138.230,210.644 140.750,210.413 142.400 C 209.933 145.837,210.618 148.711,212.283 150.247 C 212.787 150.712,213.200 151.365,213.200 151.698 C 213.200 152.030,213.470 152.526,213.800 152.800 C 214.130 153.074,214.400 153.456,214.400 153.649 C 214.400 154.613,219.241 157.992,220.644 158.009 C 222.313 158.029,223.315 159.337,223.016 161.105 C 222.668 163.164,221.214 163.904,221.193 162.033 C 221.189 161.685,220.492 160.824,219.645 160.121 L 218.104 158.842 217.680 161.121 C 216.939 165.103,216.626 165.914,215.488 166.805 C 214.091 167.900,213.355 167.633,213.078 165.931 C 212.413 161.861,211.135 157.511,210.545 157.316 C 210.355 157.253,209.859 158.649,209.441 160.418 C 208.635 163.837,207.637 165.099,206.844 163.703 C 206.507 163.109,206.317 163.078,205.628 163.500 C 204.134 164.414,203.559 164.169,204.221 162.900 C 204.992 161.423,204.960 161.256,203.807 160.730 C 203.151 160.431,202.730 159.833,202.568 158.970 C 202.433 158.251,201.900 156.828,201.384 155.808 L 200.445 153.953 200.223 155.377 C 200.100 156.159,199.905 157.413,199.789 158.161 C 199.442 160.401,198.469 160.310,198.164 158.010 C 197.430 152.482,195.437 152.673,194.233 158.386 L 193.773 160.573 192.889 159.689 C 191.500 158.300,189.520 158.686,189.000 160.446 C 188.780 161.191,188.430 162.064,188.223 162.386 C 188.016 162.709,187.729 163.609,187.585 164.386 L 187.325 165.800 186.872 164.700 C 186.473 163.730,186.207 163.600,184.618 163.600 C 182.972 163.600,182.796 163.504,182.593 162.500 C 182.471 161.895,182.108 160.484,181.786 159.365 C 181.464 158.246,181.200 156.861,181.200 156.288 C 181.200 155.716,181.039 155.148,180.842 155.026 C 180.397 154.751,180.004 155.721,179.988 157.133 C 179.978 158.037,179.915 158.095,179.576 157.514 C 179.349 157.124,179.224 154.624,179.288 151.724 L 179.400 146.621 181.127 146.327 C 186.676 145.381,193.729 138.775,197.276 131.200 C 200.816 123.643,203.078 116.231,204.420 107.800 C 206.087 97.329,205.785 78.630,203.796 69.200 C 203.495 67.770,203.165 66.150,203.064 65.600 C 202.962 65.050,202.584 63.610,202.223 62.400 C 201.862 61.190,201.410 59.660,201.217 59.000 C 199.846 54.295,197.016 48.099,194.640 44.600 C 192.956 42.119,187.710 36.400,187.119 36.400 C 186.935 36.400,186.113 35.978,185.292 35.462 C 182.940 33.985,177.699 33.269,174.694 34.016 M177.962 53.100 C 179.329 54.412,179.711 55.546,179.019 56.238 C 178.679 56.579,178.400 57.114,178.400 57.429 C 178.400 57.991,177.337 58.183,175.200 58.005 C 173.905 57.898,173.953 57.977,173.871 55.815 C 173.764 53.015,176.195 51.403,177.962 53.100 M166.563 65.629 L 167.658 66.858 166.441 68.021 C 165.317 69.095,164.000 69.276,164.000 68.357 C 164.000 68.161,163.730 68.000,163.400 68.000 C 163.000 68.000,162.800 67.600,162.800 66.800 C 162.800 66.041,163.005 65.600,163.357 65.600 C 163.664 65.600,164.018 65.330,164.145 65.000 C 164.504 64.064,165.368 64.288,166.563 65.629 M185.829 64.971 C 186.608 65.751,186.587 68.000,185.800 68.000 C 185.470 68.000,185.200 68.180,185.200 68.400 C 185.200 69.063,183.996 68.852,182.762 67.973 C 182.123 67.518,181.600 66.858,181.600 66.506 C 181.600 64.815,184.587 63.730,185.829 64.971 M175.414 71.846 C 177.388 73.139,176.503 75.600,174.064 75.600 C 171.634 75.600,170.811 73.456,172.700 72.046 C 174.042 71.045,174.176 71.035,175.414 71.846 M194.000 73.800 C 194.000 75.573,193.980 75.600,192.668 75.600 C 189.801 75.600,190.027 72.120,192.900 72.033 C 193.942 72.002,194.000 72.095,194.000 73.800 M166.444 84.382 L 167.626 85.564 166.741 86.582 C 165.878 87.575,164.000 87.998,164.000 87.200 C 164.000 86.980,163.730 86.800,163.400 86.800 C 162.399 86.800,162.717 85.098,163.900 84.129 C 165.269 83.008,165.048 82.986,166.444 84.382 M189.854 87.536 C 190.403 88.991,189.737 90.000,188.227 90.000 C 186.254 90.000,185.470 88.580,186.700 87.233 C 187.799 86.029,189.341 86.177,189.854 87.536 M177.843 92.700 C 178.557 93.640,178.536 95.121,177.799 95.858 C 176.281 97.376,174.115 94.906,175.333 93.046 C 176.127 91.834,177.086 91.702,177.843 92.700 M397.522 120.213 C 392.430 125.159,392.494 133.399,397.665 138.417 C 399.969 140.652,400.000 140.601,400.000 134.575 C 400.000 129.631,399.938 129.160,399.300 129.265 C 398.313 129.427,397.600 128.887,397.600 127.976 C 397.600 127.380,397.879 127.200,398.800 127.200 L 400.000 127.200 400.000 123.000 C 400.000 118.208,399.808 117.992,397.522 120.213 M284.000 134.776 C 284.000 135.203,283.820 135.664,283.600 135.800 C 283.380 135.936,283.197 136.892,283.194 137.924 C 283.186 140.258,283.281 140.131,279.296 143.144 C 275.321 146.149,275.200 146.104,275.200 141.605 C 275.200 137.753,275.632 136.800,277.378 136.800 C 278.389 136.800,281.354 135.546,282.576 134.600 C 283.616 133.797,284.000 133.844,284.000 134.776 M35.626 135.214 C 36.429 135.644,36.835 141.684,36.093 142.143 C 35.782 142.335,33.892 140.255,32.676 138.381 C 31.634 136.777,33.934 134.308,35.626 135.214 M40.706 136.821 L 41.944 138.242 40.010 140.509 C 37.806 143.092,37.597 142.967,37.605 139.067 C 37.616 134.455,38.245 133.998,40.706 136.821 M271.790 136.849 C 273.881 137.369,273.987 137.600,273.994 141.676 C 274.001 145.888,273.844 146.023,271.470 143.844 C 269.737 142.253,269.599 141.984,269.587 140.164 C 269.580 139.075,269.313 137.854,268.987 137.424 C 268.148 136.314,268.261 135.864,269.300 136.181 C 269.795 136.331,270.916 136.632,271.790 136.849 M337.801 136.638 C 338.336 136.988,339.004 137.199,339.286 137.105 C 340.419 136.727,342.507 139.575,341.998 140.804 C 341.645 141.658,341.645 142.136,341.998 142.797 C 342.700 144.109,340.297 146.800,338.424 146.800 C 337.777 146.800,337.133 146.985,336.994 147.210 C 336.747 147.609,335.431 146.728,333.200 144.670 C 331.202 142.826,331.723 139.816,334.400 137.739 C 336.995 135.726,336.604 135.853,337.801 136.638 M114.701 139.537 C 114.046 139.932,113.620 140.524,113.647 141.000 C 113.680 141.573,113.741 141.620,113.863 141.166 C 114.575 138.513,119.296 139.329,119.527 142.146 C 119.828 145.819,114.793 146.914,113.889 143.371 C 113.725 142.725,113.685 142.752,113.646 143.536 C 113.543 145.630,117.454 146.897,118.880 145.232 C 121.981 141.611,118.691 137.128,114.701 139.537 M335.900 139.623 C 335.028 140.142,334.942 142.888,335.776 143.580 C 336.755 144.393,338.535 143.924,339.119 142.700 C 340.174 140.488,337.976 138.385,335.900 139.623 M166.600 141.516 C 168.362 143.175,172.004 145.600,172.735 145.600 C 173.925 145.600,173.314 158.131,171.982 161.039 C 170.546 164.174,170.618 164.198,169.688 160.257 C 169.286 158.555,168.814 157.126,168.639 157.081 C 168.233 156.978,166.801 160.714,166.800 161.876 C 166.800 163.543,166.089 163.185,165.845 161.396 C 165.710 160.408,165.490 158.790,165.355 157.800 L 165.109 156.000 168.475 156.000 C 172.925 156.000,173.513 155.427,172.108 152.460 C 168.889 145.662,161.490 144.240,156.628 149.483 C 156.063 150.093,155.600 150.797,155.600 151.047 C 155.600 151.297,155.330 151.726,155.000 152.000 C 154.670 152.274,154.400 152.849,154.400 153.278 C 154.400 153.806,154.174 154.015,153.700 153.924 C 153.084 153.805,153.000 153.262,153.000 149.395 L 153.000 145.000 155.200 144.564 C 157.660 144.075,161.268 142.426,163.035 140.981 C 164.568 139.728,164.727 139.751,166.600 141.516 M354.200 144.713 C 356.453 146.388,356.907 148.756,355.412 151.037 C 354.836 151.917,354.809 152.167,355.258 152.488 C 355.666 152.779,355.621 152.818,355.078 152.642 C 354.663 152.507,353.886 152.756,353.248 153.228 C 352.283 153.941,351.998 153.982,351.040 153.546 C 350.251 153.186,349.750 153.164,349.264 153.467 C 347.928 154.302,345.368 149.935,346.252 148.330 C 346.534 147.819,346.681 147.119,346.579 146.775 C 346.268 145.727,348.643 143.372,349.388 143.990 C 349.887 144.404,350.165 144.382,350.900 143.870 C 352.077 143.049,351.902 143.005,354.200 144.713 M0.000 146.200 C 0.000 148.583,0.366 148.959,1.189 147.420 C 1.615 146.624,1.619 146.211,1.208 145.220 C 0.447 143.383,0.000 143.746,0.000 146.200 M394.312 149.447 L 394.424 154.294 392.844 154.547 C 390.040 154.995,390.000 154.921,390.000 149.336 L 390.000 144.358 392.100 144.479 L 394.200 144.600 394.312 149.447 M129.200 146.124 C 127.037 147.141,126.057 149.686,127.400 150.800 C 127.730 151.074,128.000 151.546,128.000 151.849 C 128.000 152.167,128.380 152.380,128.900 152.354 C 129.541 152.321,129.605 152.256,129.123 152.129 C 126.767 151.508,127.518 146.950,130.043 146.547 C 130.891 146.411,131.488 146.143,131.369 145.950 C 131.086 145.493,130.432 145.545,129.200 146.124 M349.458 146.981 C 347.523 148.774,348.685 150.954,351.455 150.727 C 352.969 150.603,353.002 150.566,353.125 148.862 C 353.323 146.097,351.450 145.136,349.458 146.981 M132.784 147.275 C 133.852 148.421,133.828 150.306,132.730 151.474 C 132.252 151.983,132.032 152.400,132.241 152.400 C 132.451 152.400,132.932 152.038,133.311 151.595 C 134.548 150.150,133.920 146.400,132.440 146.400 C 132.181 146.400,132.336 146.794,132.784 147.275 M166.737 147.568 C 168.814 148.628,170.743 150.666,171.660 152.770 C 172.854 155.510,172.630 155.681,168.009 155.556 C 165.814 155.498,163.906 155.560,163.770 155.696 C 163.514 155.953,156.895 155.692,155.277 155.362 C 154.158 155.133,154.313 154.388,156.109 151.357 C 158.533 147.264,163.012 145.668,166.737 147.568 M297.442 148.100 C 300.805 150.363,302.910 154.773,300.900 155.346 C 299.118 155.853,286.078 155.764,285.247 155.238 C 284.408 154.706,285.008 152.351,286.445 150.542 C 289.566 146.610,293.822 145.665,297.442 148.100 M12.625 148.391 C 13.761 147.958,16.000 148.503,16.000 149.211 C 16.000 149.384,16.348 149.434,16.774 149.323 C 17.422 149.153,17.543 149.323,17.513 150.361 C 17.494 151.044,17.797 151.955,18.188 152.386 C 18.971 153.252,18.763 154.400,17.823 154.400 C 17.492 154.400,16.929 154.965,16.572 155.655 C 15.399 157.923,14.151 158.787,12.791 158.274 C 11.920 157.945,11.493 157.947,11.159 158.281 C 10.474 158.966,8.282 156.601,8.619 155.539 C 8.787 155.011,8.624 154.556,8.136 154.194 C 7.520 153.736,7.482 153.529,7.903 152.923 C 8.774 151.668,8.958 151.053,8.506 150.902 C 8.264 150.821,8.637 150.168,9.334 149.450 C 10.128 148.631,10.768 148.270,11.051 148.481 C 11.302 148.668,12.002 148.627,12.625 148.391 M11.600 151.600 C 10.751 152.449,10.667 152.862,11.052 154.300 C 11.260 155.078,11.559 155.200,13.247 155.200 L 15.200 155.200 15.200 153.414 C 15.200 150.876,13.288 149.912,11.600 151.600 M312.607 154.634 C 313.900 155.926,314.029 156.252,313.921 157.934 L 313.800 159.800 311.800 159.813 C 310.700 159.819,309.608 159.945,309.373 160.091 C 308.706 160.507,304.454 159.947,303.986 159.383 C 303.004 158.200,304.318 156.064,306.119 155.915 C 306.915 155.849,307.057 155.709,306.729 155.315 C 306.405 154.924,306.499 154.800,307.124 154.800 C 307.595 154.800,308.055 154.458,308.200 154.000 C 308.642 152.606,310.905 152.932,312.607 154.634 M196.949 155.739 C 197.256 156.475,197.638 158.021,197.796 159.174 C 198.043 160.970,198.194 161.243,198.842 161.073 C 199.557 160.886,199.828 161.295,199.589 162.200 C 199.531 162.420,199.343 163.562,199.171 164.737 C 199.000 165.913,198.771 166.962,198.664 167.070 C 198.317 167.416,196.800 166.390,196.800 165.810 C 196.800 164.603,196.048 164.888,194.983 166.497 L 193.869 168.181 193.103 166.391 C 190.705 160.783,190.495 157.825,192.680 160.422 C 194.048 162.048,194.267 161.927,194.586 159.371 C 194.848 157.275,195.781 154.400,196.200 154.400 C 196.304 154.400,196.641 155.003,196.949 155.739 M161.200 157.576 C 161.200 159.444,160.597 160.038,160.221 158.539 C 159.884 157.199,159.494 157.644,158.589 160.400 C 156.955 165.379,156.000 166.889,156.000 164.497 C 156.000 163.891,155.807 162.766,155.571 161.997 C 155.335 161.229,155.008 159.565,154.844 158.300 L 154.547 156.000 157.873 156.000 L 161.200 156.000 161.200 157.576 M291.600 159.433 C 291.600 162.001,291.474 162.825,291.100 162.702 C 290.337 162.450,289.613 160.761,289.600 159.200 C 289.572 156.006,287.765 157.001,287.301 160.465 C 286.879 163.606,285.931 162.494,285.454 158.300 L 285.193 156.000 288.397 156.000 L 291.600 156.000 291.600 159.433 M300.534 159.100 C 300.233 160.805,299.879 163.023,299.749 164.028 C 299.080 169.190,295.317 167.629,295.222 162.150 C 295.210 161.463,294.930 160.135,294.600 159.200 C 293.487 156.046,293.529 156.000,297.541 156.000 L 301.083 156.000 300.534 159.100 M9.988 160.400 C 9.988 162.137,9.480 162.993,8.640 162.671 C 7.776 162.339,7.811 160.203,8.700 159.019 C 9.543 157.897,9.988 158.375,9.988 160.400 M227.400 161.216 C 227.400 163.735,226.070 163.972,225.018 161.640 C 224.056 159.507,224.352 158.809,226.070 159.161 C 227.337 159.420,227.400 159.517,227.400 161.216 M14.059 159.600 C 14.276 159.600,14.396 160.095,14.327 160.700 C 14.128 162.425,12.640 162.221,12.471 160.446 C 12.363 159.323,12.454 159.135,13.003 159.346 C 13.367 159.486,13.843 159.600,14.059 159.600 M305.833 160.400 C 307.285 160.400,307.519 160.967,306.948 163.100 C 306.664 164.158,306.161 164.218,304.506 163.393 C 302.859 162.571,302.303 159.570,303.912 160.188 C 304.216 160.304,305.081 160.400,305.833 160.400 M205.230 164.910 C 205.181 165.388,204.632 165.296,204.460 164.780 C 204.372 164.516,204.516 164.372,204.780 164.460 C 205.044 164.548,205.247 164.751,205.230 164.910 M334.983 166.772 C 335.279 167.251,334.526 167.725,333.993 167.396 C 333.546 167.119,333.840 166.400,334.400 166.400 C 334.594 166.400,334.856 166.568,334.983 166.772 " stroke="none" fill="#80ad12" fill-rule="evenodd"></path><path id="path4" d="M0.000 70.200 L 0.000 140.400 0.840 140.400 C 2.209 140.400,5.308 143.959,5.052 145.238 C 4.937 145.813,5.042 146.482,5.285 146.725 C 5.607 147.047,5.589 147.332,5.218 147.778 C 4.939 148.114,4.807 148.642,4.926 148.951 C 5.175 149.600,3.826 151.200,3.031 151.200 C 2.052 151.200,1.992 156.673,2.939 159.600 C 3.046 159.930,3.243 160.702,3.378 161.316 C 3.711 162.832,4.135 162.442,4.797 160.011 C 5.383 157.861,6.132 156.843,6.588 157.581 C 7.125 158.450,7.697 157.983,7.472 156.858 C 7.346 156.230,7.444 155.516,7.689 155.271 C 8.016 154.944,7.957 154.758,7.467 154.570 C 6.597 154.237,6.607 152.548,7.481 152.059 C 8.042 151.745,8.073 151.570,7.654 151.065 C 7.133 150.438,8.241 148.800,9.186 148.800 C 9.398 148.800,9.755 148.458,9.978 148.041 C 10.481 147.101,13.821 146.703,14.486 147.504 C 14.721 147.787,15.228 147.918,15.613 147.796 C 16.672 147.460,18.922 149.861,18.631 151.018 C 18.484 151.605,18.612 151.996,19.003 152.146 C 19.891 152.487,19.725 153.867,18.711 154.577 C 18.222 154.920,18.042 155.200,18.311 155.200 C 18.580 155.200,18.800 155.560,18.800 156.000 C 18.800 156.440,18.620 156.800,18.400 156.800 C 18.180 156.800,18.000 157.520,18.000 158.400 C 18.000 159.988,19.105 160.725,19.800 159.600 C 20.148 159.037,20.799 159.102,20.806 159.700 C 20.833 161.874,23.271 160.809,23.802 158.391 C 23.936 157.782,24.395 156.966,24.823 156.579 C 25.250 156.193,25.600 155.634,25.600 155.338 C 25.600 155.042,25.780 154.800,26.000 154.800 C 26.220 154.800,26.408 155.295,26.417 155.900 C 26.442 157.554,27.747 162.651,28.172 162.756 C 28.376 162.806,28.906 161.757,29.349 160.424 C 30.199 157.867,30.584 157.488,31.000 158.800 C 31.555 160.548,34.400 157.238,34.400 154.844 C 34.400 152.937,35.539 153.748,35.647 155.733 C 35.754 157.682,36.307 154.096,36.346 151.200 C 36.383 148.479,36.286 148.082,35.294 146.926 C 34.692 146.225,33.750 145.056,33.200 144.327 C 32.650 143.599,31.537 142.283,30.727 141.402 L 29.254 139.800 27.956 140.564 C 27.005 141.125,25.623 141.378,22.771 141.516 C 17.442 141.772,15.223 140.704,11.609 136.141 C 9.102 132.977,9.266 125.201,11.907 121.937 C 15.073 118.023,17.790 116.674,22.591 116.630 L 25.942 116.600 27.136 114.953 C 31.595 108.797,40.878 108.457,46.486 114.244 C 48.143 115.953,48.255 116.000,50.711 116.000 C 61.488 116.000,67.012 129.655,59.338 137.329 C 58.529 138.138,57.686 138.800,57.465 138.800 C 57.244 138.800,56.779 139.039,56.431 139.331 C 54.784 140.716,49.153 141.269,46.492 140.307 C 45.030 139.778,44.895 139.877,41.399 144.045 C 37.469 148.732,37.597 148.480,37.647 151.441 C 37.719 155.638,38.174 157.202,38.566 154.600 C 39.098 151.071,39.205 150.925,39.984 152.665 C 40.368 153.524,40.806 155.030,40.956 156.013 C 41.107 156.996,41.559 158.231,41.961 158.758 L 42.692 159.717 42.969 157.758 C 43.444 154.399,43.540 154.221,44.436 155.033 C 44.982 155.527,45.200 156.262,45.200 157.606 C 45.200 159.999,45.633 163.200,45.957 163.200 C 46.278 163.200,47.102 160.552,47.442 158.429 C 47.833 155.984,48.484 156.623,49.443 160.391 L 50.290 163.716 51.845 160.861 C 53.560 157.712,53.877 157.476,54.211 159.100 C 54.335 159.705,54.593 160.830,54.785 161.600 C 54.976 162.370,55.251 163.749,55.396 164.664 C 55.823 167.373,58.135 168.531,58.571 166.256 C 58.972 164.160,59.589 159.556,59.826 156.877 C 60.115 153.621,61.322 153.547,61.800 156.755 C 62.028 158.290,62.733 161.711,63.072 162.934 C 63.223 163.478,63.519 163.607,64.219 163.431 C 64.911 163.257,65.416 163.468,66.113 164.220 C 67.318 165.520,67.828 165.019,68.407 161.963 C 69.263 157.448,70.094 157.695,71.799 162.970 C 73.409 167.950,73.676 168.160,75.043 165.516 C 75.737 164.175,76.067 164.291,76.970 166.194 C 78.016 168.397,79.152 166.925,79.744 162.600 C 80.117 159.872,81.197 154.269,81.386 154.081 C 81.871 153.595,82.800 154.497,82.800 155.453 C 82.800 156.451,83.886 163.073,84.263 164.369 C 84.387 164.796,84.578 164.723,85.031 164.077 C 85.547 163.340,85.752 163.286,86.442 163.707 C 88.032 164.678,88.403 163.316,88.372 156.624 C 88.340 149.835,88.380 150.004,86.200 147.464 L 84.600 145.600 81.750 145.600 C 76.240 145.600,75.675 145.194,76.435 141.777 C 77.510 136.937,77.483 136.775,75.037 133.467 C 72.212 129.648,72.208 129.683,75.822 127.786 C 79.342 125.939,80.400 125.064,80.400 123.998 C 80.400 123.575,80.650 122.457,80.956 121.514 C 81.262 120.571,81.630 119.287,81.774 118.661 C 82.078 117.333,82.795 117.383,86.200 118.970 C 90.082 120.780,90.137 120.789,91.982 119.963 C 92.920 119.544,93.879 119.200,94.112 119.200 C 94.346 119.200,94.821 118.943,95.169 118.630 C 96.963 117.011,98.102 117.610,98.910 120.600 C 100.238 125.514,100.444 125.802,103.773 127.425 C 107.689 129.335,107.904 129.613,106.824 131.360 C 106.354 132.121,105.842 132.801,105.685 132.872 C 105.528 132.942,104.798 133.863,104.062 134.919 L 102.724 136.837 103.447 140.419 C 104.382 145.040,104.286 145.156,99.232 145.483 L 95.536 145.723 93.168 148.536 L 90.800 151.348 90.800 154.210 C 90.800 155.847,91.160 158.427,91.640 160.236 C 92.102 161.976,92.639 164.177,92.833 165.127 C 93.407 167.935,93.762 168.160,95.319 166.700 C 96.670 165.433,97.060 164.527,97.376 161.921 C 97.528 160.667,97.978 159.227,98.375 158.721 C 98.773 158.214,99.227 157.035,99.384 156.100 C 99.541 155.165,99.814 154.400,99.990 154.400 C 100.445 154.400,101.593 156.945,101.640 158.060 C 101.662 158.577,101.817 159.450,101.984 160.000 L 102.288 161.000 102.774 159.800 C 103.360 158.351,104.111 159.043,104.824 161.688 C 105.596 164.555,106.686 163.404,106.999 159.392 C 107.377 154.547,108.368 152.378,108.394 156.338 C 108.404 157.859,109.627 161.630,110.030 161.382 C 110.233 161.256,110.400 160.916,110.400 160.627 C 110.400 160.338,110.784 159.233,111.254 158.171 L 112.108 156.240 113.052 157.420 C 113.571 158.069,113.997 159.084,113.998 159.676 C 113.999 160.268,114.180 160.864,114.400 161.000 C 114.651 161.155,114.800 160.279,114.800 158.647 C 114.800 155.586,115.255 155.119,116.797 156.597 C 118.834 158.549,119.206 156.197,117.923 149.474 L 117.480 147.148 115.990 147.255 C 114.387 147.371,111.952 145.544,112.303 144.490 C 112.396 144.211,112.288 143.455,112.063 142.810 C 111.717 141.816,111.802 141.436,112.621 140.319 C 113.153 139.593,113.944 138.235,114.380 137.300 C 115.311 135.300,115.479 135.240,116.051 136.700 C 116.469 137.766,116.493 137.773,116.813 136.941 C 117.270 135.755,117.819 135.500,118.404 136.204 C 118.676 136.532,119.151 136.800,119.460 136.800 C 120.555 136.800,122.807 139.239,122.405 139.991 C 122.165 140.439,122.198 140.838,122.499 141.139 C 123.891 142.531,122.056 147.200,120.118 147.200 C 119.392 147.200,119.356 147.356,119.677 149.100 C 119.869 150.145,120.155 152.830,120.313 155.067 C 120.602 159.164,120.951 160.354,121.454 158.957 C 121.604 158.541,122.332 157.360,123.072 156.334 C 123.812 155.308,124.611 153.913,124.848 153.234 C 125.085 152.555,125.486 152.000,125.739 152.001 C 126.051 152.001,126.161 151.192,126.078 149.501 L 125.956 147.000 127.910 145.684 C 129.630 144.525,129.999 144.420,131.001 144.800 C 131.626 145.038,132.353 145.150,132.616 145.049 C 132.879 144.948,133.613 145.346,134.247 145.933 C 136.485 148.004,135.173 154.414,132.613 153.915 C 132.386 153.870,131.686 153.970,131.058 154.135 C 130.277 154.341,129.621 154.243,128.986 153.827 C 127.597 152.918,126.910 155.078,127.793 157.579 C 128.127 158.526,128.400 159.700,128.400 160.188 C 128.400 160.996,129.492 162.400,130.121 162.400 C 130.263 162.400,130.659 161.860,131.000 161.200 C 131.800 159.652,132.270 159.682,132.607 161.300 C 133.089 163.608,133.930 164.588,134.774 163.824 C 135.410 163.248,135.539 163.244,135.992 163.790 C 137.214 165.263,138.623 163.799,139.388 160.263 C 139.707 158.787,141.281 159.626,141.603 161.443 C 141.923 163.252,143.101 163.175,143.407 161.325 C 143.546 160.486,143.907 158.900,144.209 157.800 C 144.510 156.700,144.862 155.142,144.990 154.339 C 145.345 152.102,146.800 151.841,146.800 154.014 C 146.800 155.038,147.740 161.068,148.228 163.179 C 148.816 165.717,149.188 162.388,149.194 154.549 C 149.201 145.007,149.407 145.599,145.800 144.809 C 126.332 140.544,122.771 114.252,140.400 104.934 C 142.825 103.653,145.946 102.837,148.972 102.693 L 150.944 102.600 151.031 90.600 C 151.079 84.000,151.300 77.430,151.522 76.000 C 153.022 66.337,153.410 64.705,156.127 56.607 C 162.183 38.557,174.928 29.344,185.326 35.500 C 186.162 35.995,186.983 36.400,187.150 36.400 C 187.716 36.400,193.000 42.185,194.640 44.600 C 197.016 48.099,199.846 54.295,201.217 59.000 C 201.410 59.660,201.862 61.190,202.223 62.400 C 202.584 63.610,202.962 65.050,203.064 65.600 C 203.165 66.150,203.495 67.770,203.796 69.200 C 205.324 76.447,206.033 94.694,205.101 102.800 C 203.865 113.552,201.470 122.246,197.276 131.200 C 193.729 138.775,186.676 145.381,181.127 146.327 L 179.400 146.621 179.288 151.724 C 179.224 154.624,179.349 157.124,179.576 157.514 C 179.915 158.095,179.978 158.037,179.988 157.133 C 180.004 155.721,180.397 154.751,180.842 155.026 C 181.039 155.148,181.200 155.716,181.200 156.288 C 181.200 156.861,181.464 158.246,181.786 159.365 C 182.108 160.484,182.471 161.895,182.593 162.500 C 182.796 163.504,182.972 163.600,184.618 163.600 C 186.207 163.600,186.473 163.730,186.872 164.700 L 187.325 165.800 187.585 164.386 C 187.729 163.609,188.016 162.709,188.223 162.386 C 188.430 162.064,188.780 161.191,189.000 160.446 C 189.520 158.686,191.500 158.300,192.889 159.689 L 193.773 160.573 194.233 158.386 C 195.437 152.673,197.430 152.482,198.164 158.010 C 198.469 160.310,199.442 160.401,199.789 158.161 C 199.905 157.413,200.100 156.159,200.223 155.377 L 200.445 153.953 201.384 155.808 C 201.900 156.828,202.433 158.251,202.568 158.970 C 202.730 159.833,203.151 160.431,203.807 160.730 C 204.960 161.256,204.992 161.423,204.221 162.900 C 203.559 164.169,204.134 164.414,205.628 163.500 C 206.317 163.078,206.507 163.109,206.844 163.703 C 207.637 165.099,208.635 163.837,209.441 160.418 C 209.859 158.649,210.355 157.253,210.545 157.316 C 211.135 157.511,212.413 161.861,213.078 165.931 C 213.355 167.633,214.091 167.900,215.488 166.805 C 216.626 165.914,216.939 165.103,217.680 161.121 L 218.104 158.842 219.645 160.121 C 220.492 160.824,221.189 161.685,221.193 162.033 C 221.214 163.904,222.668 163.164,223.016 161.105 C 223.315 159.337,222.313 158.029,220.644 158.009 C 219.241 157.992,214.400 154.613,214.400 153.649 C 214.400 153.456,214.130 153.074,213.800 152.800 C 213.470 152.526,213.200 152.030,213.200 151.698 C 213.200 151.365,212.787 150.712,212.283 150.247 C 210.618 148.711,209.933 145.837,210.413 142.400 C 210.644 140.750,210.986 138.230,211.173 136.800 C 211.360 135.370,211.712 133.693,211.956 133.074 C 212.200 132.455,212.400 131.502,212.400 130.958 C 212.400 129.679,213.867 126.800,214.519 126.800 C 215.699 126.800,216.980 129.608,217.621 133.600 C 217.780 134.590,218.109 136.390,218.353 137.600 C 218.597 138.810,218.842 141.479,218.898 143.531 C 219.009 147.579,218.951 147.700,216.021 149.626 L 215.067 150.253 216.034 151.622 C 217.994 154.399,221.912 156.400,225.391 156.400 L 227.600 156.400 227.600 144.200 C 227.600 129.850,227.923 131.601,225.092 130.609 C 219.526 128.658,217.538 123.287,219.226 114.755 C 219.461 113.570,219.809 111.160,220.001 109.400 C 220.493 104.890,222.341 94.906,223.370 91.200 C 223.705 89.990,224.091 88.550,224.226 88.000 C 224.474 86.988,225.071 85.551,226.295 83.019 C 227.721 80.068,231.140 81.339,231.842 85.081 C 231.978 85.807,232.232 86.400,232.407 86.400 C 232.582 86.400,232.849 87.300,233.000 88.400 C 233.151 89.499,233.438 90.500,233.637 90.623 C 233.837 90.746,234.000 91.472,234.000 92.236 C 234.000 93.001,234.270 94.272,234.600 95.062 C 234.930 95.851,235.200 97.079,235.200 97.789 C 235.200 98.499,235.382 99.602,235.604 100.240 C 236.080 101.606,236.663 105.351,237.324 111.270 C 237.586 113.618,237.935 115.673,238.100 115.836 C 238.534 116.266,238.469 123.882,238.025 124.705 C 237.819 125.087,237.235 126.278,236.728 127.352 C 235.609 129.722,233.165 131.912,231.454 132.078 L 230.200 132.200 230.200 138.800 L 230.200 145.400 232.657 145.364 C 236.094 145.313,239.196 143.982,241.211 141.693 C 243.157 139.482,243.170 139.177,241.374 137.808 L 239.949 136.720 240.110 132.860 C 240.338 127.423,242.046 118.000,242.804 118.000 C 242.967 118.000,243.209 117.456,243.342 116.791 C 244.302 111.991,247.699 118.611,248.581 127.000 C 248.719 128.320,249.029 130.539,249.268 131.931 C 249.610 133.927,249.590 134.687,249.170 135.531 C 248.487 136.905,246.776 138.800,246.220 138.800 C 245.983 138.800,245.348 139.729,244.809 140.864 C 242.818 145.057,238.796 147.559,233.400 147.961 L 230.200 148.200 230.087 153.167 C 230.025 155.899,230.136 158.296,230.333 158.493 C 230.764 158.924,232.000 157.797,232.000 156.971 C 232.000 155.408,233.144 156.651,233.774 158.900 C 234.160 160.275,234.635 161.707,234.830 162.083 C 235.025 162.458,235.301 163.490,235.442 164.375 C 235.839 166.857,237.034 164.784,237.782 160.316 C 238.023 158.877,238.064 158.845,239.115 159.292 C 240.485 159.874,242.000 161.195,242.000 161.808 C 242.000 162.294,243.262 163.600,243.731 163.600 C 243.879 163.600,244.000 162.843,244.000 161.917 C 244.000 160.992,244.280 158.427,244.622 156.217 C 244.964 154.008,245.337 151.592,245.450 150.848 C 245.731 148.999,246.161 149.654,246.990 153.200 C 247.376 154.850,247.862 156.637,248.070 157.171 C 248.278 157.705,248.617 159.037,248.825 160.131 C 249.324 162.762,250.800 164.482,250.800 162.433 C 250.800 159.840,252.590 159.580,253.090 162.100 C 253.417 163.745,253.479 163.802,255.014 163.852 C 255.886 163.880,256.968 164.026,257.419 164.177 C 258.145 164.420,258.342 164.131,259.164 161.625 C 259.673 160.071,260.176 158.800,260.281 158.800 C 260.742 158.800,261.975 160.673,261.993 161.400 C 262.044 163.500,264.000 163.232,264.000 161.125 C 264.000 160.675,264.298 159.383,264.663 158.254 C 265.028 157.124,265.401 155.930,265.493 155.600 C 265.853 154.304,267.102 156.789,267.525 159.643 C 267.761 161.228,268.202 162.773,268.505 163.077 C 269.060 163.631,270.400 163.415,270.400 162.771 C 270.400 162.582,270.940 161.813,271.600 161.061 C 272.260 160.309,272.801 159.358,272.802 158.947 C 272.804 158.536,273.074 157.684,273.402 157.054 C 273.770 156.349,274.000 154.807,274.000 153.044 L 274.000 150.180 272.100 148.430 C 271.055 147.468,269.725 146.243,269.144 145.708 L 268.089 144.736 266.135 145.429 C 263.524 146.357,261.738 145.993,259.974 144.174 C 256.552 140.642,259.113 134.400,263.985 134.400 C 266.350 134.400,266.355 134.391,264.802 132.802 C 260.370 128.268,260.577 119.508,265.226 114.865 C 276.040 104.067,294.104 117.576,286.122 130.492 C 284.702 132.791,284.875 133.284,286.781 132.364 C 291.684 129.995,297.200 133.294,297.200 138.596 C 297.200 144.336,290.686 147.748,286.087 144.417 L 284.455 143.235 280.327 146.238 C 278.057 147.890,275.975 149.537,275.700 149.897 C 274.420 151.576,275.359 165.200,276.755 165.200 C 276.902 165.200,277.468 163.356,278.011 161.102 C 279.093 156.619,280.056 155.499,280.612 158.078 C 281.145 160.551,282.286 162.394,282.544 161.200 C 282.663 160.650,283.066 158.760,283.439 157.000 C 284.172 153.538,285.161 150.800,285.677 150.800 C 285.855 150.800,286.000 150.612,286.000 150.383 C 286.000 149.863,286.965 148.890,288.873 147.485 C 293.515 144.067,301.413 148.049,302.191 154.200 C 302.575 157.239,302.779 158.000,303.208 158.000 C 303.423 158.000,303.600 157.647,303.600 157.216 C 303.600 156.249,305.382 154.541,306.750 154.198 C 307.308 154.058,307.995 153.615,308.276 153.213 C 308.716 152.585,309.028 152.536,310.494 152.866 C 314.750 153.822,316.522 160.400,312.524 160.400 C 311.434 160.400,311.356 161.041,312.200 163.062 C 312.530 163.851,312.800 164.808,312.800 165.187 C 312.800 165.845,313.966 167.200,314.531 167.200 C 314.679 167.200,314.800 166.943,314.800 166.629 C 314.800 166.014,315.849 164.800,316.380 164.800 C 316.558 164.800,316.930 165.348,317.208 166.019 C 317.995 167.918,318.783 167.317,319.857 164.000 C 320.390 162.350,321.160 160.564,321.568 160.031 L 322.308 159.062 322.907 160.231 C 323.236 160.874,323.633 162.165,323.788 163.100 C 324.107 165.022,324.432 165.168,325.659 163.941 C 326.360 163.240,326.654 163.166,327.254 163.541 C 328.254 164.165,328.400 164.125,328.400 163.224 C 328.400 162.797,328.578 162.337,328.795 162.203 C 329.012 162.069,329.482 160.933,329.839 159.680 C 330.629 156.908,331.083 156.336,331.378 157.742 C 331.500 158.324,331.682 159.205,331.783 159.700 C 332.205 161.783,336.005 163.441,335.670 161.396 C 334.735 155.694,335.466 153.776,337.599 156.331 C 339.079 158.105,339.200 157.980,339.200 154.671 C 339.200 150.650,338.244 147.852,336.979 148.170 C 336.280 148.345,335.991 148.201,335.794 147.580 C 335.592 146.943,335.411 146.859,334.993 147.206 C 334.276 147.801,332.400 146.606,332.400 145.554 C 332.400 145.139,332.240 144.800,332.043 144.800 C 331.478 144.800,331.121 142.777,331.588 142.215 C 331.892 141.849,331.844 141.568,331.416 141.213 C 330.897 140.783,330.935 140.513,331.716 139.060 C 333.123 136.447,334.044 135.539,334.720 136.099 C 335.164 136.468,335.391 136.427,335.771 135.908 C 336.687 134.655,342.367 136.474,341.911 137.874 C 341.850 138.062,342.205 138.651,342.700 139.183 C 343.763 140.326,343.795 140.541,342.996 141.204 C 342.457 141.651,342.458 141.754,343.005 142.154 C 343.722 142.679,343.000 144.791,342.100 144.797 C 341.825 144.799,341.600 145.160,341.600 145.600 C 341.600 146.040,341.449 146.400,341.264 146.400 C 341.080 146.400,340.747 146.805,340.526 147.300 C 339.976 148.530,340.742 158.400,341.387 158.400 C 341.825 158.400,343.600 156.306,343.600 155.790 C 343.600 155.656,344.050 154.957,344.600 154.236 C 345.616 152.904,346.021 150.000,345.191 150.000 C 344.247 150.000,345.105 146.048,346.272 145.018 C 346.892 144.470,347.709 143.722,348.087 143.355 C 348.869 142.595,351.951 142.282,352.695 142.887 C 352.967 143.108,353.462 143.185,353.795 143.057 C 354.128 142.930,354.400 142.999,354.400 143.213 C 354.400 143.426,354.625 143.608,354.900 143.617 C 356.372 143.667,358.070 149.415,356.838 150.177 C 356.638 150.300,356.562 150.733,356.668 151.139 C 356.898 152.017,354.691 154.400,353.649 154.400 C 353.270 154.400,352.752 154.608,352.497 154.863 C 352.146 155.214,351.898 155.213,351.474 154.862 C 351.146 154.589,350.395 154.501,349.658 154.648 C 348.947 154.791,348.172 154.708,347.871 154.459 C 347.464 154.121,347.049 154.320,346.097 155.309 C 344.597 156.868,344.026 158.682,344.926 159.027 C 345.907 159.403,347.209 158.455,347.464 157.178 C 347.912 154.938,349.170 156.112,349.201 158.800 C 349.219 160.375,349.800 161.064,350.570 160.425 C 350.916 160.138,351.200 159.574,351.200 159.173 C 351.200 158.109,353.082 156.016,353.335 156.800 C 353.441 157.130,353.836 158.390,354.214 159.600 C 356.273 166.203,356.579 166.752,356.966 164.530 C 357.113 163.688,357.392 162.550,357.586 162.000 C 357.780 161.450,358.064 160.280,358.217 159.400 C 358.474 157.918,358.525 157.866,358.909 158.700 C 359.357 159.676,360.018 159.826,361.105 159.200 C 361.487 158.980,362.655 158.446,363.700 158.014 C 365.237 157.379,365.600 157.041,365.600 156.247 C 365.600 154.094,366.525 153.249,366.964 155.000 C 367.269 156.216,368.211 156.301,368.817 155.168 C 370.705 151.641,374.760 150.287,378.306 152.000 C 380.372 152.998,381.080 153.008,381.387 152.040 C 381.972 150.197,385.230 147.957,388.077 147.440 C 389.435 147.194,389.563 147.053,389.677 145.686 L 389.800 144.200 392.200 144.200 L 394.600 144.200 394.722 146.096 C 394.831 147.789,395.076 148.223,397.022 150.170 C 398.220 151.368,399.200 152.630,399.200 152.974 C 399.200 153.318,399.380 153.600,399.600 153.600 C 399.851 153.600,400.000 151.067,400.000 146.800 C 400.000 143.060,399.842 140.000,399.648 140.000 C 397.977 140.000,394.726 135.026,393.954 131.288 C 393.012 126.729,396.526 118.800,399.488 118.800 C 399.897 118.800,400.000 114.814,400.000 99.000 L 400.000 79.200 394.173 79.200 L 388.346 79.200 388.629 78.300 C 389.008 77.096,390.443 75.296,391.256 75.008 C 391.703 74.848,391.998 74.075,392.186 72.572 C 392.574 69.467,394.475 67.483,397.700 66.818 L 400.000 66.343 400.000 33.172 L 400.000 0.000 200.000 0.000 L 0.000 0.000 0.000 70.200 M356.220 15.049 C 359.648 15.910,361.835 18.028,363.045 21.659 C 363.873 24.146,363.921 24.198,365.592 24.484 C 370.967 25.401,374.319 28.919,373.802 33.100 C 373.370 36.590,374.304 36.400,357.604 36.400 C 342.698 36.400,341.600 36.469,341.600 37.407 C 341.600 38.107,339.379 39.940,338.161 40.245 C 336.737 40.603,334.958 39.715,333.559 37.948 L 332.333 36.400 328.176 36.400 C 323.253 36.400,322.615 35.920,322.645 32.239 C 322.677 28.223,325.571 25.308,329.918 24.914 C 332.239 24.704,332.373 24.633,332.624 23.492 C 333.463 19.670,339.602 17.338,343.212 19.471 L 344.347 20.141 346.508 17.946 C 348.175 16.252,349.163 15.607,350.834 15.122 C 353.660 14.301,353.265 14.307,356.220 15.049 M287.456 42.722 C 288.367 43.095,289.781 43.957,290.598 44.639 C 292.060 45.857,292.112 45.868,293.742 45.304 C 296.804 44.246,299.419 45.394,300.677 48.349 L 301.252 49.698 303.926 49.465 C 305.397 49.337,307.320 49.368,308.200 49.535 C 309.585 49.797,309.988 49.693,311.200 48.757 C 313.606 46.899,317.514 47.068,318.280 49.063 C 318.394 49.361,319.068 49.600,319.793 49.600 C 323.611 49.600,327.374 52.327,327.124 54.914 L 327.000 56.200 308.678 56.304 L 290.356 56.408 289.767 57.816 C 288.056 61.912,281.490 61.836,279.739 57.700 L 279.189 56.400 274.295 56.395 C 268.145 56.388,267.600 56.254,267.600 54.747 C 267.600 52.536,269.797 50.746,272.608 50.667 L 275.000 50.600 275.129 49.245 C 275.613 44.184,282.335 40.627,287.456 42.722 M51.324 57.461 C 53.250 58.624,54.847 60.680,55.628 63.000 C 56.408 65.317,56.628 65.508,59.110 66.023 C 63.813 66.999,66.400 69.656,66.400 73.509 C 66.400 77.439,67.461 77.200,49.997 77.200 L 34.852 77.200 33.726 78.768 C 31.517 81.845,28.162 81.836,26.119 78.749 L 25.110 77.225 20.495 77.112 L 15.879 77.000 15.327 75.404 C 13.945 71.405,17.510 66.409,21.756 66.395 C 24.432 66.386,25.099 66.063,25.364 64.650 C 26.078 60.843,30.700 58.837,34.838 60.540 L 37.076 61.460 38.377 59.910 C 41.698 55.955,47.129 54.927,51.324 57.461 M282.576 134.600 C 281.354 135.546,278.389 136.800,277.378 136.800 C 275.632 136.800,275.200 137.753,275.200 141.605 C 275.200 146.104,275.321 146.149,279.296 143.144 C 283.281 140.131,283.186 140.258,283.194 137.924 C 283.197 136.892,283.380 135.936,283.600 135.800 C 284.077 135.505,284.141 134.000,283.676 134.000 C 283.499 134.000,283.004 134.270,282.576 134.600 M33.185 136.081 C 31.867 137.524,31.918 137.699,34.561 140.866 C 36.175 142.800,36.400 142.546,36.400 138.790 C 36.400 136.073,36.291 135.570,35.626 135.214 C 34.541 134.633,34.491 134.651,33.185 136.081 M37.845 135.727 C 37.538 136.871,37.533 141.361,37.838 142.155 C 38.016 142.619,38.563 142.204,40.010 140.509 L 41.944 138.242 40.706 136.821 C 39.064 134.938,38.150 134.589,37.845 135.727 M268.400 136.277 C 268.400 136.481,268.664 136.996,268.987 137.424 C 269.313 137.854,269.580 139.075,269.587 140.164 C 269.599 141.984,269.737 142.253,271.470 143.844 C 273.844 146.023,274.001 145.888,273.994 141.676 C 273.987 137.600,273.881 137.369,271.790 136.849 C 270.916 136.632,269.795 136.331,269.300 136.181 C 268.805 136.030,268.400 136.073,268.400 136.277 M163.035 140.981 C 161.268 142.426,157.660 144.075,155.200 144.564 L 153.000 145.000 153.000 149.395 C 153.000 153.262,153.084 153.805,153.700 153.924 C 154.174 154.015,154.400 153.806,154.400 153.278 C 154.400 152.849,154.670 152.274,155.000 152.000 C 155.330 151.726,155.600 151.297,155.600 151.047 C 155.600 150.797,156.063 150.093,156.628 149.483 C 161.490 144.240,168.889 145.662,172.108 152.460 C 173.513 155.427,172.925 156.000,168.475 156.000 L 165.109 156.000 165.355 157.800 C 165.490 158.790,165.710 160.408,165.845 161.396 C 166.089 163.185,166.800 163.543,166.800 161.876 C 166.801 160.714,168.233 156.978,168.639 157.081 C 168.814 157.126,169.286 158.555,169.688 160.257 C 170.618 164.198,170.546 164.174,171.982 161.039 C 173.314 158.131,173.925 145.600,172.735 145.600 C 172.004 145.600,168.362 143.175,166.600 141.516 C 164.727 139.751,164.568 139.728,163.035 140.981 M0.000 158.200 C 0.000 161.311,0.109 162.000,0.600 162.000 C 1.252 162.000,1.430 158.844,0.943 155.900 C 0.490 153.156,0.000 154.350,0.000 158.200 M154.844 158.300 C 155.008 159.565,155.335 161.229,155.571 161.997 C 155.807 162.766,156.000 163.891,156.000 164.497 C 156.000 166.889,156.955 165.379,158.589 160.400 C 159.494 157.644,159.884 157.199,160.221 158.539 C 160.597 160.038,161.200 159.444,161.200 157.576 L 161.200 156.000 157.873 156.000 L 154.547 156.000 154.844 158.300 M285.454 158.300 C 285.931 162.494,286.879 163.606,287.301 160.465 C 287.765 157.001,289.572 156.006,289.600 159.200 C 289.613 160.761,290.337 162.450,291.100 162.702 C 291.474 162.825,291.600 162.001,291.600 159.433 L 291.600 156.000 288.397 156.000 L 285.193 156.000 285.454 158.300 M294.000 156.750 C 294.000 157.162,294.270 158.265,294.600 159.200 C 294.930 160.135,295.210 161.463,295.222 162.150 C 295.317 167.629,299.080 169.190,299.749 164.028 C 299.879 163.023,300.233 160.805,300.534 159.100 L 301.083 156.000 297.541 156.000 C 294.346 156.000,294.000 156.073,294.000 156.750 M8.700 159.019 C 7.811 160.203,7.776 162.339,8.640 162.671 C 9.480 162.993,9.988 162.137,9.988 160.400 C 9.988 158.375,9.543 157.897,8.700 159.019 M224.519 159.466 C 224.112 160.528,225.641 163.251,226.569 163.119 C 228.175 162.889,227.749 159.504,226.070 159.161 C 225.093 158.961,224.682 159.042,224.519 159.466 M12.471 160.446 C 12.640 162.221,14.128 162.425,14.327 160.700 C 14.396 160.095,14.276 159.600,14.059 159.600 C 13.843 159.600,13.367 159.486,13.003 159.346 C 12.454 159.135,12.363 159.323,12.471 160.446 M303.148 160.185 C 302.520 160.813,303.373 162.828,304.506 163.393 C 306.161 164.218,306.664 164.158,306.948 163.100 C 307.519 160.967,307.285 160.400,305.833 160.400 C 305.081 160.400,304.216 160.304,303.912 160.188 C 303.607 160.071,303.264 160.070,303.148 160.185 M333.817 166.772 C 333.521 167.251,334.274 167.725,334.807 167.396 C 335.254 167.119,334.960 166.400,334.400 166.400 C 334.206 166.400,333.944 166.568,333.817 166.772 " stroke="none" fill="#5de1f6" fill-rule="evenodd"></path></g></svg>